<?xml version='1.0' encoding='utf-8'?>
<svg height="236.62mm" viewBox="0.0 0.0 1139.02 236.62" width="1139.02mm" xmlns="http://www.w3.org/2000/svg" xmlns:cc="http://creativecommons.org/ns#" xmlns:dc="http://purl.org/dc/elements/1.1/" xmlns:inkscape="http://www.inkscape.org/namespaces/inkscape" xmlns:rdf="http://www.w3.org/1999/02/22-rdf-syntax-ns#" xmlns:svg="http://www.w3.org/2000/svg" xmlns:xlink="http://www.w3.org/1999/xlink">
<!--
SideDoorHousing - Box with service hatches on either one or both of the sides that are locked with latches



This box is designed as a housing for electronic projects but could be used for other purposes. It has hatches that can be re-opened with simple tools. If built from thin enough material, it intentionally cannot be opened with bare hands.

The hatches are on the x sides.

#### Assembly instructions
The main body is easy to assemble:
1. Starting with the floor and then add the four walls (for any removable sides, the wall will just be a small part on the base )
2. Add the top piece

For the removable walls:
1. Add the lips to the removable walls
2. Sit the latches in place (it is importand to make sure the springs on the latches point inwards and the angled ends point to the side walls. See image below)
3. Glue the U-shaped clamps in place (it is important **not** to glue the latches)

![Wall details](static/samples/SideDoorHousing.jpg)


#### Re-Opening

The latches lock in place when closed. To open them they need to be pressed in and can then be moved aside.

![Closed Box](static/samples/SideDoorHousing-2.jpg)




Created with Boxes.py (https://boxes.hackerspace-bamberg.de/)
Creation date: 2025-04-16 13:25:26
Command line (remove spaces between dashes): boxes SideDoorHousing - -x=150 - -y=200 - -h=50 - -thickness=2.6 - -burn=0.03
Url: https://boxes.hackerspace-bamberg.de/SideDoorHousing?FingerJoint_style=rectangular&FingerJoint_surroundingspaces=0.5&FingerJoint_bottom_lip=0.0&FingerJoint_edge_width=1.0&FingerJoint_extra_length=0.0&FingerJoint_finger=2.0&FingerJoint_play=0.0&FingerJoint_space=2.0&FingerJoint_width=1.0&Stackable_angle=60&Stackable_bottom_stabilizers=0.0&Stackable_height=2.0&Stackable_holedistance=1.0&Stackable_width=4.0&x=150&y=200&h=50&bottom_edge=s&double_door=0&double_door=1&thickness=2.6&format=svg&tabs=0.0&qr_code=0&debug=0&labels=0&labels=1&reference=100.0&inner_corners=loop&burn=0.03&language=en&render=2
Url short: https://boxes.hackerspace-bamberg.de/SideDoorHousing?x=150&y=200&h=50&thickness=2.6&burn=0.03
SettingsUrl: https://boxes.hackerspace-bamberg.de/SideDoorHousing?FingerJoint_style=rectangular&FingerJoint_surroundingspaces=0.5&FingerJoint_bottom_lip=0.0&FingerJoint_edge_width=1.0&FingerJoint_extra_length=0.0&FingerJoint_finger=2.0&FingerJoint_play=0.0&FingerJoint_space=2.0&FingerJoint_width=1.0&Stackable_angle=60&Stackable_bottom_stabilizers=0.0&Stackable_height=2.0&Stackable_holedistance=1.0&Stackable_width=4.0&x=150&y=200&h=50&bottom_edge=s&double_door=0&double_door=1&thickness=2.6&format=svg&tabs=0.0&qr_code=0&debug=0&labels=0&labels=1&reference=100.0&inner_corners=loop&burn=0.03&language=en&render=2
SettingsUrl short: https://boxes.hackerspace-bamberg.de/SideDoorHousing?x=150&y=200&h=50&thickness=2.6&burn=0.03
-->
<title>SideDoorHousing</title>
<metadata>
<rdf:RDF><cc:Work>
<dc:title>Box - SideDoorHousing</dc:title>
<dc:date>2025-04-16 13:25:26</dc:date>
<dc:source>https://boxes.hackerspace-bamberg.de/SideDoorHousing?FingerJoint_style=rectangular&amp;FingerJoint_surroundingspaces=0.5&amp;FingerJoint_bottom_lip=0.0&amp;FingerJoint_edge_width=1.0&amp;FingerJoint_extra_length=0.0&amp;FingerJoint_finger=2.0&amp;FingerJoint_play=0.0&amp;FingerJoint_space=2.0&amp;FingerJoint_width=1.0&amp;Stackable_angle=60&amp;Stackable_bottom_stabilizers=0.0&amp;Stackable_height=2.0&amp;Stackable_holedistance=1.0&amp;Stackable_width=4.0&amp;x=150&amp;y=200&amp;h=50&amp;bottom_edge=s&amp;double_door=0&amp;double_door=1&amp;thickness=2.6&amp;format=svg&amp;tabs=0.0&amp;qr_code=0&amp;debug=0&amp;labels=0&amp;labels=1&amp;reference=100.0&amp;inner_corners=loop&amp;burn=0.03&amp;language=en&amp;render=2</dc:source>
<dc:source>https://boxes.hackerspace-bamberg.de/SideDoorHousing?x=150&amp;y=200&amp;h=50&amp;thickness=2.6&amp;burn=0.03</dc:source>
<dc:description>Box with service hatches on either one or both of the sides that are locked with latches


This box is designed as a housing for electronic projects but could be used for other purposes. It has hatches that can be re-opened with simple tools. If built from thin enough material, it intentionally cannot be opened with bare hands.

The hatches are on the x sides.

#### Assembly instructions
The main body is easy to assemble:
1. Starting with the floor and then add the four walls (for any removable sides, the wall will just be a small part on the base )
2. Add the top piece

For the removable walls:
1. Add the lips to the removable walls
2. Sit the latches in place (it is importand to make sure the springs on the latches point inwards and the angled ends point to the side walls. See image below)
3. Glue the U-shaped clamps in place (it is important **not** to glue the latches)

![Wall details](static/samples/SideDoorHousing.jpg)


#### Re-Opening

The latches lock in place when closed. To open them they need to be pressed in and can then be moved aside.

![Closed Box](static/samples/SideDoorHousing-2.jpg)



Created with Boxes.py (https://boxes.hackerspace-bamberg.de/)
Command line: boxes SideDoorHousing --FingerJoint_style=rectangular --FingerJoint_surroundingspaces=0.5 --FingerJoint_bottom_lip=0.0 --FingerJoint_edge_width=1.0 --FingerJoint_extra_length=0.0 --FingerJoint_finger=2.0 --FingerJoint_play=0.0 --FingerJoint_space=2.0 --FingerJoint_width=1.0 --Stackable_angle=60 --Stackable_bottom_stabilizers=0.0 --Stackable_height=2.0 --Stackable_holedistance=1.0 --Stackable_width=4.0 --x=150 --y=200 --h=50 --bottom_edge=s --double_door=0 --double_door=1 --thickness=2.6 --format=svg --tabs=0.0 --qr_code=0 --debug=0 --labels=0 --labels=1 --reference=100.0 --inner_corners=loop --burn=0.03
Command line short: boxes SideDoorHousing --x=150 --y=200 --h=50 --thickness=2.6 --burn=0.03
Url: https://boxes.hackerspace-bamberg.de/SideDoorHousing?FingerJoint_style=rectangular&amp;FingerJoint_surroundingspaces=0.5&amp;FingerJoint_bottom_lip=0.0&amp;FingerJoint_edge_width=1.0&amp;FingerJoint_extra_length=0.0&amp;FingerJoint_finger=2.0&amp;FingerJoint_play=0.0&amp;FingerJoint_space=2.0&amp;FingerJoint_width=1.0&amp;Stackable_angle=60&amp;Stackable_bottom_stabilizers=0.0&amp;Stackable_height=2.0&amp;Stackable_holedistance=1.0&amp;Stackable_width=4.0&amp;x=150&amp;y=200&amp;h=50&amp;bottom_edge=s&amp;double_door=0&amp;double_door=1&amp;thickness=2.6&amp;format=svg&amp;tabs=0.0&amp;qr_code=0&amp;debug=0&amp;labels=0&amp;labels=1&amp;reference=100.0&amp;inner_corners=loop&amp;burn=0.03&amp;language=en&amp;render=2
Url short: https://boxes.hackerspace-bamberg.de/SideDoorHousing?x=150&amp;y=200&amp;h=50&amp;thickness=2.6&amp;burn=0.03
SettingsUrl: https://boxes.hackerspace-bamberg.de/SideDoorHousing?FingerJoint_style=rectangular&amp;FingerJoint_surroundingspaces=0.5&amp;FingerJoint_bottom_lip=0.0&amp;FingerJoint_edge_width=1.0&amp;FingerJoint_extra_length=0.0&amp;FingerJoint_finger=2.0&amp;FingerJoint_play=0.0&amp;FingerJoint_space=2.0&amp;FingerJoint_width=1.0&amp;Stackable_angle=60&amp;Stackable_bottom_stabilizers=0.0&amp;Stackable_height=2.0&amp;Stackable_holedistance=1.0&amp;Stackable_width=4.0&amp;x=150&amp;y=200&amp;h=50&amp;bottom_edge=s&amp;double_door=0&amp;double_door=1&amp;thickness=2.6&amp;format=svg&amp;tabs=0.0&amp;qr_code=0&amp;debug=0&amp;labels=0&amp;labels=1&amp;reference=100.0&amp;inner_corners=loop&amp;burn=0.03&amp;language=en&amp;render=2
SettingsUrl short: https://boxes.hackerspace-bamberg.de/SideDoorHousing?x=150&amp;y=200&amp;h=50&amp;thickness=2.6&amp;burn=0.03
</dc:description>
</cc:Work></rdf:RDF></metadata>
<g id="p-0" style="fill:none;stroke-linecap:round;stroke-linejoin:round;">
  <path d="M 10.030 226.620 H 110.030 V 216.620 H 10.030 V 226.620 Z" stroke="rgb(0,0,0)" stroke-width="0.06" />
  <text dominant-baseline="hanging" font-size="6px" style="font-family: sans-serif ; font-weight: normal; font-style: normal; fill: rgb(255,0,0)" text-anchor="middle" transform="matrix( 1.000 0.000 0.000 1.000 60.030 218.620 )">100.0mm, burn:0.03mm</text>
</g>
<g id="p-1" style="fill:none;stroke-linecap:round;stroke-linejoin:round;">
  <path d="M 12.630 212.660 H 17.400 C 17.430 212.660 17.400 212.630 17.400 212.660 V 215.230 C 17.400 215.247 17.413 215.260 17.430 215.260 H 22.630 C 22.647 215.260 22.660 215.247 22.660 215.230 V 212.660 C 22.660 212.630 22.630 212.660 22.660 212.660 H 27.800 C 27.830 212.660 27.800 212.630 27.800 212.660 V 215.230 C 27.800 215.247 27.813 215.260 27.830 215.260 H 33.030 C 33.047 215.260 33.060 215.247 33.060 215.230 V 212.660 C 33.060 212.630 33.030 212.660 33.060 212.660 H 38.200 C 38.230 212.660 38.200 212.630 38.200 212.660 V 215.230 C 38.200 215.247 38.213 215.260 38.230 215.260 H 43.430 C 43.447 215.260 43.460 215.247 43.460 215.230 V 212.660 C 43.460 212.630 43.430 212.660 43.460 212.660 H 48.600 C 48.630 212.660 48.600 212.630 48.600 212.660 V 215.230 C 48.600 215.247 48.613 215.260 48.630 215.260 H 53.830 C 53.847 215.260 53.860 215.247 53.860 215.230 V 212.660 C 53.860 212.630 53.830 212.660 53.860 212.660 H 59.000 C 59.030 212.660 59.000 212.630 59.000 212.660 V 215.230 C 59.000 215.247 59.013 215.260 59.030 215.260 H 64.230 C 64.247 215.260 64.260 215.247 64.260 215.230 V 212.660 C 64.260 212.630 64.230 212.660 64.260 212.660 H 69.400 C 69.430 212.660 69.400 212.630 69.400 212.660 V 215.230 C 69.400 215.247 69.413 215.260 69.430 215.260 H 74.630 C 74.647 215.260 74.660 215.247 74.660 215.230 V 212.660 C 74.660 212.630 74.630 212.660 74.660 212.660 H 79.800 C 79.830 212.660 79.800 212.630 79.800 212.660 V 215.230 C 79.800 215.247 79.813 215.260 79.830 215.260 H 85.030 C 85.047 215.260 85.060 215.247 85.060 215.230 V 212.660 C 85.060 212.630 85.030 212.660 85.060 212.660 H 90.200 C 90.230 212.660 90.200 212.630 90.200 212.660 V 215.230 C 90.200 215.247 90.213 215.260 90.230 215.260 H 95.430 C 95.447 215.260 95.460 215.247 95.460 215.230 V 212.660 C 95.460 212.630 95.430 212.660 95.460 212.660 H 100.600 C 100.630 212.660 100.600 212.630 100.600 212.660 V 215.230 C 100.600 215.247 100.613 215.260 100.630 215.260 H 105.830 C 105.847 215.260 105.860 215.247 105.860 215.230 V 212.660 C 105.860 212.630 105.830 212.660 105.860 212.660 H 111.000 C 111.030 212.660 111.000 212.630 111.000 212.660 V 215.230 C 111.000 215.247 111.013 215.260 111.030 215.260 H 116.230 C 116.247 215.260 116.260 215.247 116.260 215.230 V 212.660 C 116.260 212.630 116.230 212.660 116.260 212.660 H 121.400 C 121.430 212.660 121.400 212.630 121.400 212.660 V 215.230 C 121.400 215.247 121.413 215.260 121.430 215.260 H 126.630 C 126.647 215.260 126.660 215.247 126.660 215.230 V 212.660 C 126.660 212.630 126.630 212.660 126.660 212.660 H 131.800 C 131.830 212.660 131.800 212.630 131.800 212.660 V 215.230 C 131.800 215.247 131.813 215.260 131.830 215.260 H 137.030 C 137.047 215.260 137.060 215.247 137.060 215.230 V 212.660 C 137.060 212.630 137.030 212.660 137.060 212.660 H 142.200 C 142.230 212.660 142.200 212.630 142.200 212.660 V 215.230 C 142.200 215.247 142.213 215.260 142.230 215.260 H 147.430 C 147.447 215.260 147.460 215.247 147.460 215.230 V 212.660 C 147.460 212.630 147.430 212.660 147.460 212.660 H 152.600 C 152.630 212.660 152.600 212.630 152.600 212.660 V 215.230 C 152.600 215.247 152.613 215.260 152.630 215.260 H 157.830 C 157.847 215.260 157.860 215.247 157.860 215.230 V 212.660 C 157.860 212.630 157.830 212.660 157.860 212.660 H 162.630 C 162.647 212.660 162.660 212.647 162.660 212.630 V 208.860 C 162.660 208.830 162.630 208.860 162.660 208.860 H 165.230 C 165.247 208.860 165.260 208.847 165.260 208.830 V 203.630 C 165.260 203.613 165.247 203.600 165.230 203.600 H 162.660 C 162.630 203.600 162.660 203.630 162.660 203.600 V 198.460 C 162.660 198.430 162.630 198.460 162.660 198.460 H 165.230 C 165.247 198.460 165.260 198.447 165.260 198.430 V 193.230 C 165.260 193.213 165.247 193.200 165.230 193.200 H 162.660 C 162.630 193.200 162.660 193.230 162.660 193.200 V 188.060 C 162.660 188.030 162.630 188.060 162.660 188.060 H 165.230 C 165.247 188.060 165.260 188.047 165.260 188.030 V 182.830 C 165.260 182.813 165.247 182.800 165.230 182.800 H 162.660 C 162.630 182.800 162.660 182.830 162.660 182.800 V 177.660 C 162.660 177.630 162.630 177.660 162.660 177.660 H 165.230 C 165.247 177.660 165.260 177.647 165.260 177.630 V 172.430 C 165.260 172.413 165.247 172.400 165.230 172.400 H 162.660 C 162.630 172.400 162.660 172.430 162.660 172.400 V 167.260 C 162.660 167.230 162.630 167.260 162.660 167.260 H 165.230 C 165.247 167.260 165.260 167.247 165.260 167.230 V 162.030 C 165.260 162.013 165.247 162.000 165.230 162.000 H 162.660 C 162.630 162.000 162.660 162.030 162.660 162.000 V 156.860 C 162.660 156.830 162.630 156.860 162.660 156.860 H 165.230 C 165.247 156.860 165.260 156.847 165.260 156.830 V 151.630 C 165.260 151.613 165.247 151.600 165.230 151.600 H 162.660 C 162.630 151.600 162.660 151.630 162.660 151.600 V 146.460 C 162.660 146.430 162.630 146.460 162.660 146.460 H 165.230 C 165.247 146.460 165.260 146.447 165.260 146.430 V 141.230 C 165.260 141.213 165.247 141.200 165.230 141.200 H 162.660 C 162.630 141.200 162.660 141.230 162.660 141.200 V 136.060 C 162.660 136.030 162.630 136.060 162.660 136.060 H 165.230 C 165.247 136.060 165.260 136.047 165.260 136.030 V 130.830 C 165.260 130.813 165.247 130.800 165.230 130.800 H 162.660 C 162.630 130.800 162.660 130.830 162.660 130.800 V 125.660 C 162.660 125.630 162.630 125.660 162.660 125.660 H 165.230 C 165.247 125.660 165.260 125.647 165.260 125.630 V 120.430 C 165.260 120.413 165.247 120.400 165.230 120.400 H 162.660 C 162.630 120.400 162.660 120.430 162.660 120.400 V 115.260 C 162.660 115.230 162.630 115.260 162.660 115.260 H 165.230 C 165.247 115.260 165.260 115.247 165.260 115.230 V 110.030 C 165.260 110.013 165.247 110.000 165.230 110.000 H 162.660 C 162.630 110.000 162.660 110.030 162.660 110.000 V 104.860 C 162.660 104.830 162.630 104.860 162.660 104.860 H 165.230 C 165.247 104.860 165.260 104.847 165.260 104.830 V 99.630 C 165.260 99.613 165.247 99.600 165.230 99.600 H 162.660 C 162.630 99.600 162.660 99.630 162.660 99.600 V 94.460 C 162.660 94.430 162.630 94.460 162.660 94.460 H 165.230 C 165.247 94.460 165.260 94.447 165.260 94.430 V 89.230 C 165.260 89.213 165.247 89.200 165.230 89.200 H 162.660 C 162.630 89.200 162.660 89.230 162.660 89.200 V 84.060 C 162.660 84.030 162.630 84.060 162.660 84.060 H 165.230 C 165.247 84.060 165.260 84.047 165.260 84.030 V 78.830 C 165.260 78.813 165.247 78.800 165.230 78.800 H 162.660 C 162.630 78.800 162.660 78.830 162.660 78.800 V 73.660 C 162.660 73.630 162.630 73.660 162.660 73.660 H 165.230 C 165.247 73.660 165.260 73.647 165.260 73.630 V 68.430 C 165.260 68.413 165.247 68.400 165.230 68.400 H 162.660 C 162.630 68.400 162.660 68.430 162.660 68.400 V 63.260 C 162.660 63.230 162.630 63.260 162.660 63.260 H 165.230 C 165.247 63.260 165.260 63.247 165.260 63.230 V 58.030 C 165.260 58.013 165.247 58.000 165.230 58.000 H 162.660 C 162.630 58.000 162.660 58.030 162.660 58.000 V 52.860 C 162.660 52.830 162.630 52.860 162.660 52.860 H 165.230 C 165.247 52.860 165.260 52.847 165.260 52.830 V 47.630 C 165.260 47.613 165.247 47.600 165.230 47.600 H 162.660 C 162.630 47.600 162.660 47.630 162.660 47.600 V 42.460 C 162.660 42.430 162.630 42.460 162.660 42.460 H 165.230 C 165.247 42.460 165.260 42.447 165.260 42.430 V 37.230 C 165.260 37.213 165.247 37.200 165.230 37.200 H 162.660 C 162.630 37.200 162.660 37.230 162.660 37.200 V 32.060 C 162.660 32.030 162.630 32.060 162.660 32.060 H 165.230 C 165.247 32.060 165.260 32.047 165.260 32.030 V 26.830 C 165.260 26.813 165.247 26.800 165.230 26.800 H 162.660 C 162.630 26.800 162.660 26.830 162.660 26.800 V 21.660 C 162.660 21.630 162.630 21.660 162.660 21.660 H 165.230 C 165.247 21.660 165.260 21.647 165.260 21.630 V 16.430 C 165.260 16.413 165.247 16.400 165.230 16.400 H 162.660 C 162.630 16.400 162.660 16.430 162.660 16.400 V 12.630 C 162.660 12.613 162.647 12.600 162.630 12.600 H 157.860 C 157.830 12.600 157.860 12.630 157.860 12.600 V 10.030 C 157.860 10.013 157.847 10.000 157.830 10.000 H 152.630 C 152.613 10.000 152.600 10.013 152.600 10.030 V 12.600 C 152.600 12.630 152.630 12.600 152.600 12.600 H 147.460 C 147.430 12.600 147.460 12.630 147.460 12.600 V 10.030 C 147.460 10.013 147.447 10.000 147.430 10.000 H 142.230 C 142.213 10.000 142.200 10.013 142.200 10.030 V 12.600 C 142.200 12.630 142.230 12.600 142.200 12.600 H 137.060 C 137.030 12.600 137.060 12.630 137.060 12.600 V 10.030 C 137.060 10.013 137.047 10.000 137.030 10.000 H 131.830 C 131.813 10.000 131.800 10.013 131.800 10.030 V 12.600 C 131.800 12.630 131.830 12.600 131.800 12.600 H 126.660 C 126.630 12.600 126.660 12.630 126.660 12.600 V 10.030 C 126.660 10.013 126.647 10.000 126.630 10.000 H 121.430 C 121.413 10.000 121.400 10.013 121.400 10.030 V 12.600 C 121.400 12.630 121.430 12.600 121.400 12.600 H 116.260 C 116.230 12.600 116.260 12.630 116.260 12.600 V 10.030 C 116.260 10.013 116.247 10.000 116.230 10.000 H 111.030 C 111.013 10.000 111.000 10.013 111.000 10.030 V 12.600 C 111.000 12.630 111.030 12.600 111.000 12.600 H 105.860 C 105.830 12.600 105.860 12.630 105.860 12.600 V 10.030 C 105.860 10.013 105.847 10.000 105.830 10.000 H 100.630 C 100.613 10.000 100.600 10.013 100.600 10.030 V 12.600 C 100.600 12.630 100.630 12.600 100.600 12.600 H 95.460 C 95.430 12.600 95.460 12.630 95.460 12.600 V 10.030 C 95.460 10.013 95.447 10.000 95.430 10.000 H 90.230 C 90.213 10.000 90.200 10.013 90.200 10.030 V 12.600 C 90.200 12.630 90.230 12.600 90.200 12.600 H 85.060 C 85.030 12.600 85.060 12.630 85.060 12.600 V 10.030 C 85.060 10.013 85.047 10.000 85.030 10.000 H 79.830 C 79.813 10.000 79.800 10.013 79.800 10.030 V 12.600 C 79.800 12.630 79.830 12.600 79.800 12.600 H 74.660 C 74.630 12.600 74.660 12.630 74.660 12.600 V 10.030 C 74.660 10.013 74.647 10.000 74.630 10.000 H 69.430 C 69.413 10.000 69.400 10.013 69.400 10.030 V 12.600 C 69.400 12.630 69.430 12.600 69.400 12.600 H 64.260 C 64.230 12.600 64.260 12.630 64.260 12.600 V 10.030 C 64.260 10.013 64.247 10.000 64.230 10.000 H 59.030 C 59.013 10.000 59.000 10.013 59.000 10.030 V 12.600 C 59.000 12.630 59.030 12.600 59.000 12.600 H 53.860 C 53.830 12.600 53.860 12.630 53.860 12.600 V 10.030 C 53.860 10.013 53.847 10.000 53.830 10.000 H 48.630 C 48.613 10.000 48.600 10.013 48.600 10.030 V 12.600 C 48.600 12.630 48.630 12.600 48.600 12.600 H 43.460 C 43.430 12.600 43.460 12.630 43.460 12.600 V 10.030 C 43.460 10.013 43.447 10.000 43.430 10.000 H 38.230 C 38.213 10.000 38.200 10.013 38.200 10.030 V 12.600 C 38.200 12.630 38.230 12.600 38.200 12.600 H 33.060 C 33.030 12.600 33.060 12.630 33.060 12.600 V 10.030 C 33.060 10.013 33.047 10.000 33.030 10.000 H 27.830 C 27.813 10.000 27.800 10.013 27.800 10.030 V 12.600 C 27.800 12.630 27.830 12.600 27.800 12.600 H 22.660 C 22.630 12.600 22.660 12.630 22.660 12.600 V 10.030 C 22.660 10.013 22.647 10.000 22.630 10.000 H 17.430 C 17.413 10.000 17.400 10.013 17.400 10.030 V 12.600 C 17.400 12.630 17.430 12.600 17.400 12.600 H 12.630 C 12.613 12.600 12.600 12.613 12.600 12.630 V 16.400 C 12.600 16.430 12.630 16.400 12.600 16.400 H 10.030 C 10.013 16.400 10.000 16.413 10.000 16.430 V 21.630 C 10.000 21.647 10.013 21.660 10.030 21.660 H 12.600 C 12.630 21.660 12.600 21.630 12.600 21.660 V 26.800 C 12.600 26.830 12.630 26.800 12.600 26.800 H 10.030 C 10.013 26.800 10.000 26.813 10.000 26.830 V 32.030 C 10.000 32.047 10.013 32.060 10.030 32.060 H 12.600 C 12.630 32.060 12.600 32.030 12.600 32.060 V 37.200 C 12.600 37.230 12.630 37.200 12.600 37.200 H 10.030 C 10.013 37.200 10.000 37.213 10.000 37.230 V 42.430 C 10.000 42.447 10.013 42.460 10.030 42.460 H 12.600 C 12.630 42.460 12.600 42.430 12.600 42.460 V 47.600 C 12.600 47.630 12.630 47.600 12.600 47.600 H 10.030 C 10.013 47.600 10.000 47.613 10.000 47.630 V 52.830 C 10.000 52.847 10.013 52.860 10.030 52.860 H 12.600 C 12.630 52.860 12.600 52.830 12.600 52.860 V 58.000 C 12.600 58.030 12.630 58.000 12.600 58.000 H 10.030 C 10.013 58.000 10.000 58.013 10.000 58.030 V 63.230 C 10.000 63.247 10.013 63.260 10.030 63.260 H 12.600 C 12.630 63.260 12.600 63.230 12.600 63.260 V 68.400 C 12.600 68.430 12.630 68.400 12.600 68.400 H 10.030 C 10.013 68.400 10.000 68.413 10.000 68.430 V 73.630 C 10.000 73.647 10.013 73.660 10.030 73.660 H 12.600 C 12.630 73.660 12.600 73.630 12.600 73.660 V 78.800 C 12.600 78.830 12.630 78.800 12.600 78.800 H 10.030 C 10.013 78.800 10.000 78.813 10.000 78.830 V 84.030 C 10.000 84.047 10.013 84.060 10.030 84.060 H 12.600 C 12.630 84.060 12.600 84.030 12.600 84.060 V 89.200 C 12.600 89.230 12.630 89.200 12.600 89.200 H 10.030 C 10.013 89.200 10.000 89.213 10.000 89.230 V 94.430 C 10.000 94.447 10.013 94.460 10.030 94.460 H 12.600 C 12.630 94.460 12.600 94.430 12.600 94.460 V 99.600 C 12.600 99.630 12.630 99.600 12.600 99.600 H 10.030 C 10.013 99.600 10.000 99.613 10.000 99.630 V 104.830 C 10.000 104.847 10.013 104.860 10.030 104.860 H 12.600 C 12.630 104.860 12.600 104.830 12.600 104.860 V 110.000 C 12.600 110.030 12.630 110.000 12.600 110.000 H 10.030 C 10.013 110.000 10.000 110.013 10.000 110.030 V 115.230 C 10.000 115.247 10.013 115.260 10.030 115.260 H 12.600 C 12.630 115.260 12.600 115.230 12.600 115.260 V 120.400 C 12.600 120.430 12.630 120.400 12.600 120.400 H 10.030 C 10.013 120.400 10.000 120.413 10.000 120.430 V 125.630 C 10.000 125.647 10.013 125.660 10.030 125.660 H 12.600 C 12.630 125.660 12.600 125.630 12.600 125.660 V 130.800 C 12.600 130.830 12.630 130.800 12.600 130.800 H 10.030 C 10.013 130.800 10.000 130.813 10.000 130.830 V 136.030 C 10.000 136.047 10.013 136.060 10.030 136.060 H 12.600 C 12.630 136.060 12.600 136.030 12.600 136.060 V 141.200 C 12.600 141.230 12.630 141.200 12.600 141.200 H 10.030 C 10.013 141.200 10.000 141.213 10.000 141.230 V 146.430 C 10.000 146.447 10.013 146.460 10.030 146.460 H 12.600 C 12.630 146.460 12.600 146.430 12.600 146.460 V 151.600 C 12.600 151.630 12.630 151.600 12.600 151.600 H 10.030 C 10.013 151.600 10.000 151.613 10.000 151.630 V 156.830 C 10.000 156.847 10.013 156.860 10.030 156.860 H 12.600 C 12.630 156.860 12.600 156.830 12.600 156.860 V 162.000 C 12.600 162.030 12.630 162.000 12.600 162.000 H 10.030 C 10.013 162.000 10.000 162.013 10.000 162.030 V 167.230 C 10.000 167.247 10.013 167.260 10.030 167.260 H 12.600 C 12.630 167.260 12.600 167.230 12.600 167.260 V 172.400 C 12.600 172.430 12.630 172.400 12.600 172.400 H 10.030 C 10.013 172.400 10.000 172.413 10.000 172.430 V 177.630 C 10.000 177.647 10.013 177.660 10.030 177.660 H 12.600 C 12.630 177.660 12.600 177.630 12.600 177.660 V 182.800 C 12.600 182.830 12.630 182.800 12.600 182.800 H 10.030 C 10.013 182.800 10.000 182.813 10.000 182.830 V 188.030 C 10.000 188.047 10.013 188.060 10.030 188.060 H 12.600 C 12.630 188.060 12.600 188.030 12.600 188.060 V 193.200 C 12.600 193.230 12.630 193.200 12.600 193.200 H 10.030 C 10.013 193.200 10.000 193.213 10.000 193.230 V 198.430 C 10.000 198.447 10.013 198.460 10.030 198.460 H 12.600 C 12.630 198.460 12.600 198.430 12.600 198.460 V 203.600 C 12.600 203.630 12.630 203.600 12.600 203.600 H 10.030 C 10.013 203.600 10.000 203.613 10.000 203.630 V 208.830 C 10.000 208.847 10.013 208.860 10.030 208.860 H 12.600 C 12.630 208.860 12.600 208.830 12.600 208.860 V 212.630 C 12.600 212.647 12.613 212.660 12.630 212.660 Z" stroke="rgb(0,0,0)" stroke-width="0.06" />
</g>
<g id="p-2" style="fill:none;stroke-linecap:round;stroke-linejoin:round;">
  <path d="M 169.190 215.260 H 319.190 H 321.790 C 321.807 215.260 321.820 215.247 321.820 215.230 V 212.630 V 208.830 C 321.820 208.813 321.807 208.800 321.790 208.800 H 319.220 C 319.190 208.800 319.220 208.830 319.220 208.800 V 203.660 C 319.220 203.630 319.190 203.660 319.220 203.660 H 321.790 C 321.807 203.660 321.820 203.647 321.820 203.630 V 198.430 C 321.820 198.413 321.807 198.400 321.790 198.400 H 319.220 C 319.190 198.400 319.220 198.430 319.220 198.400 V 193.260 C 319.220 193.230 319.190 193.260 319.220 193.260 H 321.790 C 321.807 193.260 321.820 193.247 321.820 193.230 V 188.030 C 321.820 188.013 321.807 188.000 321.790 188.000 H 319.220 C 319.190 188.000 319.220 188.030 319.220 188.000 V 182.860 C 319.220 182.830 319.190 182.860 319.220 182.860 H 321.790 C 321.807 182.860 321.820 182.847 321.820 182.830 V 177.630 C 321.820 177.613 321.807 177.600 321.790 177.600 H 319.220 C 319.190 177.600 319.220 177.630 319.220 177.600 V 172.460 C 319.220 172.430 319.190 172.460 319.220 172.460 H 321.790 C 321.807 172.460 321.820 172.447 321.820 172.430 V 167.230 C 321.820 167.213 321.807 167.200 321.790 167.200 H 319.220 C 319.190 167.200 319.220 167.230 319.220 167.200 V 162.060 C 319.220 162.030 319.190 162.060 319.220 162.060 H 321.790 C 321.807 162.060 321.820 162.047 321.820 162.030 V 156.830 C 321.820 156.813 321.807 156.800 321.790 156.800 H 319.220 C 319.190 156.800 319.220 156.830 319.220 156.800 V 151.660 C 319.220 151.630 319.190 151.660 319.220 151.660 H 321.790 C 321.807 151.660 321.820 151.647 321.820 151.630 V 146.430 C 321.820 146.413 321.807 146.400 321.790 146.400 H 319.220 C 319.190 146.400 319.220 146.430 319.220 146.400 V 141.260 C 319.220 141.230 319.190 141.260 319.220 141.260 H 321.790 C 321.807 141.260 321.820 141.247 321.820 141.230 V 136.030 C 321.820 136.013 321.807 136.000 321.790 136.000 H 319.220 C 319.190 136.000 319.220 136.030 319.220 136.000 V 130.860 C 319.220 130.830 319.190 130.860 319.220 130.860 H 321.790 C 321.807 130.860 321.820 130.847 321.820 130.830 V 125.630 C 321.820 125.613 321.807 125.600 321.790 125.600 H 319.220 C 319.190 125.600 319.220 125.630 319.220 125.600 V 120.460 C 319.220 120.430 319.190 120.460 319.220 120.460 H 321.790 C 321.807 120.460 321.820 120.447 321.820 120.430 V 115.230 C 321.820 115.213 321.807 115.200 321.790 115.200 H 319.220 C 319.190 115.200 319.220 115.230 319.220 115.200 V 110.060 C 319.220 110.030 319.190 110.060 319.220 110.060 H 321.790 C 321.807 110.060 321.820 110.047 321.820 110.030 V 104.830 C 321.820 104.813 321.807 104.800 321.790 104.800 H 319.220 C 319.190 104.800 319.220 104.830 319.220 104.800 V 99.660 C 319.220 99.630 319.190 99.660 319.220 99.660 H 321.790 C 321.807 99.660 321.820 99.647 321.820 99.630 V 94.430 C 321.820 94.413 321.807 94.400 321.790 94.400 H 319.220 C 319.190 94.400 319.220 94.430 319.220 94.400 V 89.260 C 319.220 89.230 319.190 89.260 319.220 89.260 H 321.790 C 321.807 89.260 321.820 89.247 321.820 89.230 V 84.030 C 321.820 84.013 321.807 84.000 321.790 84.000 H 319.220 C 319.190 84.000 319.220 84.030 319.220 84.000 V 78.860 C 319.220 78.830 319.190 78.860 319.220 78.860 H 321.790 C 321.807 78.860 321.820 78.847 321.820 78.830 V 73.630 C 321.820 73.613 321.807 73.600 321.790 73.600 H 319.220 C 319.190 73.600 319.220 73.630 319.220 73.600 V 68.460 C 319.220 68.430 319.190 68.460 319.220 68.460 H 321.790 C 321.807 68.460 321.820 68.447 321.820 68.430 V 63.230 C 321.820 63.213 321.807 63.200 321.790 63.200 H 319.220 C 319.190 63.200 319.220 63.230 319.220 63.200 V 58.060 C 319.220 58.030 319.190 58.060 319.220 58.060 H 321.790 C 321.807 58.060 321.820 58.047 321.820 58.030 V 52.830 C 321.820 52.813 321.807 52.800 321.790 52.800 H 319.220 C 319.190 52.800 319.220 52.830 319.220 52.800 V 47.660 C 319.220 47.630 319.190 47.660 319.220 47.660 H 321.790 C 321.807 47.660 321.820 47.647 321.820 47.630 V 42.430 C 321.820 42.413 321.807 42.400 321.790 42.400 H 319.220 C 319.190 42.400 319.220 42.430 319.220 42.400 V 37.260 C 319.220 37.230 319.190 37.260 319.220 37.260 H 321.790 C 321.807 37.260 321.820 37.247 321.820 37.230 V 32.030 C 321.820 32.013 321.807 32.000 321.790 32.000 H 319.220 C 319.190 32.000 319.220 32.030 319.220 32.000 V 26.860 C 319.220 26.830 319.190 26.860 319.220 26.860 H 321.790 C 321.807 26.860 321.820 26.847 321.820 26.830 V 21.630 C 321.820 21.613 321.807 21.600 321.790 21.600 H 319.220 C 319.190 21.600 319.220 21.630 319.220 21.600 V 16.460 C 319.220 16.430 319.190 16.460 319.220 16.460 H 321.790 C 321.807 16.460 321.820 16.447 321.820 16.430 V 12.630 V 10.030 C 321.820 10.013 321.807 10.000 321.790 10.000 H 319.190 H 169.190 H 166.590 C 166.573 10.000 166.560 10.013 166.560 10.030 V 12.630 V 16.430 C 166.560 16.447 166.573 16.460 166.590 16.460 H 169.160 C 169.190 16.460 169.160 16.430 169.160 16.460 V 21.600 C 169.160 21.630 169.190 21.600 169.160 21.600 H 166.590 C 166.573 21.600 166.560 21.613 166.560 21.630 V 26.830 C 166.560 26.847 166.573 26.860 166.590 26.860 H 169.160 C 169.190 26.860 169.160 26.830 169.160 26.860 V 32.000 C 169.160 32.030 169.190 32.000 169.160 32.000 H 166.590 C 166.573 32.000 166.560 32.013 166.560 32.030 V 37.230 C 166.560 37.247 166.573 37.260 166.590 37.260 H 169.160 C 169.190 37.260 169.160 37.230 169.160 37.260 V 42.400 C 169.160 42.430 169.190 42.400 169.160 42.400 H 166.590 C 166.573 42.400 166.560 42.413 166.560 42.430 V 47.630 C 166.560 47.647 166.573 47.660 166.590 47.660 H 169.160 C 169.190 47.660 169.160 47.630 169.160 47.660 V 52.800 C 169.160 52.830 169.190 52.800 169.160 52.800 H 166.590 C 166.573 52.800 166.560 52.813 166.560 52.830 V 58.030 C 166.560 58.047 166.573 58.060 166.590 58.060 H 169.160 C 169.190 58.060 169.160 58.030 169.160 58.060 V 63.200 C 169.160 63.230 169.190 63.200 169.160 63.200 H 166.590 C 166.573 63.200 166.560 63.213 166.560 63.230 V 68.430 C 166.560 68.447 166.573 68.460 166.590 68.460 H 169.160 C 169.190 68.460 169.160 68.430 169.160 68.460 V 73.600 C 169.160 73.630 169.190 73.600 169.160 73.600 H 166.590 C 166.573 73.600 166.560 73.613 166.560 73.630 V 78.830 C 166.560 78.847 166.573 78.860 166.590 78.860 H 169.160 C 169.190 78.860 169.160 78.830 169.160 78.860 V 84.000 C 169.160 84.030 169.190 84.000 169.160 84.000 H 166.590 C 166.573 84.000 166.560 84.013 166.560 84.030 V 89.230 C 166.560 89.247 166.573 89.260 166.590 89.260 H 169.160 C 169.190 89.260 169.160 89.230 169.160 89.260 V 94.400 C 169.160 94.430 169.190 94.400 169.160 94.400 H 166.590 C 166.573 94.400 166.560 94.413 166.560 94.430 V 99.630 C 166.560 99.647 166.573 99.660 166.590 99.660 H 169.160 C 169.190 99.660 169.160 99.630 169.160 99.660 V 104.800 C 169.160 104.830 169.190 104.800 169.160 104.800 H 166.590 C 166.573 104.800 166.560 104.813 166.560 104.830 V 110.030 C 166.560 110.047 166.573 110.060 166.590 110.060 H 169.160 C 169.190 110.060 169.160 110.030 169.160 110.060 V 115.200 C 169.160 115.230 169.190 115.200 169.160 115.200 H 166.590 C 166.573 115.200 166.560 115.213 166.560 115.230 V 120.430 C 166.560 120.447 166.573 120.460 166.590 120.460 H 169.160 C 169.190 120.460 169.160 120.430 169.160 120.460 V 125.600 C 169.160 125.630 169.190 125.600 169.160 125.600 H 166.590 C 166.573 125.600 166.560 125.613 166.560 125.630 V 130.830 C 166.560 130.847 166.573 130.860 166.590 130.860 H 169.160 C 169.190 130.860 169.160 130.830 169.160 130.860 V 136.000 C 169.160 136.030 169.190 136.000 169.160 136.000 H 166.590 C 166.573 136.000 166.560 136.013 166.560 136.030 V 141.230 C 166.560 141.247 166.573 141.260 166.590 141.260 H 169.160 C 169.190 141.260 169.160 141.230 169.160 141.260 V 146.400 C 169.160 146.430 169.190 146.400 169.160 146.400 H 166.590 C 166.573 146.400 166.560 146.413 166.560 146.430 V 151.630 C 166.560 151.647 166.573 151.660 166.590 151.660 H 169.160 C 169.190 151.660 169.160 151.630 169.160 151.660 V 156.800 C 169.160 156.830 169.190 156.800 169.160 156.800 H 166.590 C 166.573 156.800 166.560 156.813 166.560 156.830 V 162.030 C 166.560 162.047 166.573 162.060 166.590 162.060 H 169.160 C 169.190 162.060 169.160 162.030 169.160 162.060 V 167.200 C 169.160 167.230 169.190 167.200 169.160 167.200 H 166.590 C 166.573 167.200 166.560 167.213 166.560 167.230 V 172.430 C 166.560 172.447 166.573 172.460 166.590 172.460 H 169.160 C 169.190 172.460 169.160 172.430 169.160 172.460 V 177.600 C 169.160 177.630 169.190 177.600 169.160 177.600 H 166.590 C 166.573 177.600 166.560 177.613 166.560 177.630 V 182.830 C 166.560 182.847 166.573 182.860 166.590 182.860 H 169.160 C 169.190 182.860 169.160 182.830 169.160 182.860 V 188.000 C 169.160 188.030 169.190 188.000 169.160 188.000 H 166.590 C 166.573 188.000 166.560 188.013 166.560 188.030 V 193.230 C 166.560 193.247 166.573 193.260 166.590 193.260 H 169.160 C 169.190 193.260 169.160 193.230 169.160 193.260 V 198.400 C 169.160 198.430 169.190 198.400 169.160 198.400 H 166.590 C 166.573 198.400 166.560 198.413 166.560 198.430 V 203.630 C 166.560 203.647 166.573 203.660 166.590 203.660 H 169.160 C 169.190 203.660 169.160 203.630 169.160 203.660 V 208.800 C 169.160 208.830 169.190 208.800 169.160 208.800 H 166.590 C 166.573 208.800 166.560 208.813 166.560 208.830 V 212.630 V 215.230 C 166.560 215.247 166.573 215.260 166.590 215.260 H 169.190 Z" stroke="rgb(0,0,0)" stroke-width="0.06" />
</g>
<g id="p-3" style="fill:none;stroke-linecap:round;stroke-linejoin:round;">
  <path d="M 332.150 207.430 H 329.580 C 329.550 207.430 329.580 207.460 329.580 207.430 V 204.890 C 329.580 204.860 329.550 204.890 329.580 204.890 H 334.720 C 334.750 204.890 334.720 204.860 334.720 204.890 V 207.430 C 334.720 207.460 334.750 207.430 334.720 207.430 H 332.150 Z" stroke="rgb(0,0,255)" stroke-width="0.06" />
  <path d="M 342.550 207.430 H 339.980 C 339.950 207.430 339.980 207.460 339.980 207.430 V 204.890 C 339.980 204.860 339.950 204.890 339.980 204.890 H 345.120 C 345.150 204.890 345.120 204.860 345.120 204.890 V 207.430 C 345.120 207.460 345.150 207.430 345.120 207.430 H 342.550 Z" stroke="rgb(0,0,255)" stroke-width="0.06" />
  <path d="M 352.950 207.430 H 350.380 C 350.350 207.430 350.380 207.460 350.380 207.430 V 204.890 C 350.380 204.860 350.350 204.890 350.380 204.890 H 355.520 C 355.550 204.890 355.520 204.860 355.520 204.890 V 207.430 C 355.520 207.460 355.550 207.430 355.520 207.430 H 352.950 Z" stroke="rgb(0,0,255)" stroke-width="0.06" />
  <path d="M 363.350 207.430 H 360.780 C 360.750 207.430 360.780 207.460 360.780 207.430 V 204.890 C 360.780 204.860 360.750 204.890 360.780 204.890 H 365.920 C 365.950 204.890 365.920 204.860 365.920 204.890 V 207.430 C 365.920 207.460 365.950 207.430 365.920 207.430 H 363.350 Z" stroke="rgb(0,0,255)" stroke-width="0.06" />
  <path d="M 373.750 207.430 H 371.180 C 371.150 207.430 371.180 207.460 371.180 207.430 V 204.890 C 371.180 204.860 371.150 204.890 371.180 204.890 H 376.320 C 376.350 204.890 376.320 204.860 376.320 204.890 V 207.430 C 376.320 207.460 376.350 207.430 376.320 207.430 H 373.750 Z" stroke="rgb(0,0,255)" stroke-width="0.06" />
  <path d="M 384.150 207.430 H 381.580 C 381.550 207.430 381.580 207.460 381.580 207.430 V 204.890 C 381.580 204.860 381.550 204.890 381.580 204.890 H 386.720 C 386.750 204.890 386.720 204.860 386.720 204.890 V 207.430 C 386.720 207.460 386.750 207.430 386.720 207.430 H 384.150 Z" stroke="rgb(0,0,255)" stroke-width="0.06" />
  <path d="M 394.550 207.430 H 391.980 C 391.950 207.430 391.980 207.460 391.980 207.430 V 204.890 C 391.980 204.860 391.950 204.890 391.980 204.890 H 397.120 C 397.150 204.890 397.120 204.860 397.120 204.890 V 207.430 C 397.120 207.460 397.150 207.430 397.120 207.430 H 394.550 Z" stroke="rgb(0,0,255)" stroke-width="0.06" />
  <path d="M 404.950 207.430 H 402.380 C 402.350 207.430 402.380 207.460 402.380 207.430 V 204.890 C 402.380 204.860 402.350 204.890 402.380 204.890 H 407.520 C 407.550 204.890 407.520 204.860 407.520 204.890 V 207.430 C 407.520 207.460 407.550 207.430 407.520 207.430 H 404.950 Z" stroke="rgb(0,0,255)" stroke-width="0.06" />
  <path d="M 415.350 207.430 H 412.780 C 412.750 207.430 412.780 207.460 412.780 207.430 V 204.890 C 412.780 204.860 412.750 204.890 412.780 204.890 H 417.920 C 417.950 204.890 417.920 204.860 417.920 204.890 V 207.430 C 417.920 207.460 417.950 207.430 417.920 207.430 H 415.350 Z" stroke="rgb(0,0,255)" stroke-width="0.06" />
  <path d="M 425.750 207.430 H 423.180 C 423.150 207.430 423.180 207.460 423.180 207.430 V 204.890 C 423.180 204.860 423.150 204.890 423.180 204.890 H 428.320 C 428.350 204.890 428.320 204.860 428.320 204.890 V 207.430 C 428.320 207.460 428.350 207.430 428.320 207.430 H 425.750 Z" stroke="rgb(0,0,255)" stroke-width="0.06" />
  <path d="M 436.150 207.430 H 433.580 C 433.550 207.430 433.580 207.460 433.580 207.430 V 204.890 C 433.580 204.860 433.550 204.890 433.580 204.890 H 438.720 C 438.750 204.890 438.720 204.860 438.720 204.890 V 207.430 C 438.720 207.460 438.750 207.430 438.720 207.430 H 436.150 Z" stroke="rgb(0,0,255)" stroke-width="0.06" />
  <path d="M 446.550 207.430 H 443.980 C 443.950 207.430 443.980 207.460 443.980 207.430 V 204.890 C 443.980 204.860 443.950 204.890 443.980 204.890 H 449.120 C 449.150 204.890 449.120 204.860 449.120 204.890 V 207.430 C 449.120 207.460 449.150 207.430 449.120 207.430 H 446.550 Z" stroke="rgb(0,0,255)" stroke-width="0.06" />
  <path d="M 456.950 207.430 H 454.380 C 454.350 207.430 454.380 207.460 454.380 207.430 V 204.890 C 454.380 204.860 454.350 204.890 454.380 204.890 H 459.520 C 459.550 204.890 459.520 204.860 459.520 204.890 V 207.430 C 459.520 207.460 459.550 207.430 459.520 207.430 H 456.950 Z" stroke="rgb(0,0,255)" stroke-width="0.06" />
  <path d="M 467.350 207.430 H 464.780 C 464.750 207.430 464.780 207.460 464.780 207.430 V 204.890 C 464.780 204.860 464.750 204.890 464.780 204.890 H 469.920 C 469.950 204.890 469.920 204.860 469.920 204.890 V 207.430 C 469.920 207.460 469.950 207.430 469.920 207.430 H 467.350 Z" stroke="rgb(0,0,255)" stroke-width="0.06" />
  <path d="M 477.750 207.430 H 475.180 C 475.150 207.430 475.180 207.460 475.180 207.430 V 204.890 C 475.180 204.860 475.150 204.890 475.180 204.890 H 480.320 C 480.350 204.890 480.320 204.860 480.320 204.890 V 207.430 C 480.320 207.460 480.350 207.430 480.320 207.430 H 477.750 Z" stroke="rgb(0,0,255)" stroke-width="0.06" />
  <path d="M 488.150 207.430 H 485.580 C 485.550 207.430 485.580 207.460 485.580 207.430 V 204.890 C 485.580 204.860 485.550 204.890 485.580 204.890 H 490.720 C 490.750 204.890 490.720 204.860 490.720 204.890 V 207.430 C 490.720 207.460 490.750 207.430 490.720 207.430 H 488.150 Z" stroke="rgb(0,0,255)" stroke-width="0.06" />
  <path d="M 498.550 207.430 H 495.980 C 495.950 207.430 495.980 207.460 495.980 207.430 V 204.890 C 495.980 204.860 495.950 204.890 495.980 204.890 H 501.120 C 501.150 204.890 501.120 204.860 501.120 204.890 V 207.430 C 501.120 207.460 501.150 207.430 501.120 207.430 H 498.550 Z" stroke="rgb(0,0,255)" stroke-width="0.06" />
  <path d="M 508.950 207.430 H 506.380 C 506.350 207.430 506.380 207.460 506.380 207.430 V 204.890 C 506.380 204.860 506.350 204.890 506.380 204.890 H 511.520 C 511.550 204.890 511.520 204.860 511.520 204.890 V 207.430 C 511.520 207.460 511.550 207.430 511.520 207.430 H 508.950 Z" stroke="rgb(0,0,255)" stroke-width="0.06" />
  <path d="M 519.350 207.430 H 516.780 C 516.750 207.430 516.780 207.460 516.780 207.430 V 204.890 C 516.780 204.860 516.750 204.890 516.780 204.890 H 521.920 C 521.950 204.890 521.920 204.860 521.920 204.890 V 207.430 C 521.920 207.460 521.950 207.430 521.920 207.430 H 519.350 Z" stroke="rgb(0,0,255)" stroke-width="0.06" />
  <path d="M 325.750 215.260 H 336.150 C 337.068 215.260 337.970 215.018 338.765 214.559 C 339.560 214.100 340.220 213.440 340.679 212.645 C 341.133 211.859 341.786 211.206 342.572 210.753 C 343.358 210.299 344.249 210.060 345.157 210.060 H 506.343 C 507.251 210.060 508.142 210.299 508.928 210.753 C 509.714 211.206 510.367 211.859 510.821 212.645 C 511.280 213.440 511.940 214.100 512.735 214.559 C 513.530 215.018 514.432 215.260 515.350 215.260 H 525.750 C 525.767 215.260 525.780 215.247 525.780 215.230 V 211.360 C 525.780 211.330 525.750 211.360 525.780 211.360 H 528.350 C 528.367 211.360 528.380 211.347 528.380 211.330 V 206.130 C 528.380 206.113 528.367 206.100 528.350 206.100 H 525.780 C 525.750 206.100 525.780 206.130 525.780 206.100 V 202.230 V 154.830 C 525.780 154.813 525.767 154.800 525.750 154.800 H 521.980 C 521.950 154.800 521.980 154.830 521.980 154.800 V 152.230 C 521.980 152.213 521.967 152.200 521.950 152.200 H 516.750 C 516.733 152.200 516.720 152.213 516.720 152.230 V 154.800 C 516.720 154.830 516.750 154.800 516.720 154.800 H 511.580 C 511.550 154.800 511.580 154.830 511.580 154.800 V 152.230 C 511.580 152.213 511.567 152.200 511.550 152.200 H 506.350 C 506.333 152.200 506.320 152.213 506.320 152.230 V 154.800 C 506.320 154.830 506.350 154.800 506.320 154.800 H 501.180 C 501.150 154.800 501.180 154.830 501.180 154.800 V 152.230 C 501.180 152.213 501.167 152.200 501.150 152.200 H 495.950 C 495.933 152.200 495.920 152.213 495.920 152.230 V 154.800 C 495.920 154.830 495.950 154.800 495.920 154.800 H 490.780 C 490.750 154.800 490.780 154.830 490.780 154.800 V 152.230 C 490.780 152.213 490.767 152.200 490.750 152.200 H 485.550 C 485.533 152.200 485.520 152.213 485.520 152.230 V 154.800 C 485.520 154.830 485.550 154.800 485.520 154.800 H 480.380 C 480.350 154.800 480.380 154.830 480.380 154.800 V 152.230 C 480.380 152.213 480.367 152.200 480.350 152.200 H 475.150 C 475.133 152.200 475.120 152.213 475.120 152.230 V 154.800 C 475.120 154.830 475.150 154.800 475.120 154.800 H 469.980 C 469.950 154.800 469.980 154.830 469.980 154.800 V 152.230 C 469.980 152.213 469.967 152.200 469.950 152.200 H 464.750 C 464.733 152.200 464.720 152.213 464.720 152.230 V 154.800 C 464.720 154.830 464.750 154.800 464.720 154.800 H 459.580 C 459.550 154.800 459.580 154.830 459.580 154.800 V 152.230 C 459.580 152.213 459.567 152.200 459.550 152.200 H 454.350 C 454.333 152.200 454.320 152.213 454.320 152.230 V 154.800 C 454.320 154.830 454.350 154.800 454.320 154.800 H 449.180 C 449.150 154.800 449.180 154.830 449.180 154.800 V 152.230 C 449.180 152.213 449.167 152.200 449.150 152.200 H 443.950 C 443.933 152.200 443.920 152.213 443.920 152.230 V 154.800 C 443.920 154.830 443.950 154.800 443.920 154.800 H 438.780 C 438.750 154.800 438.780 154.830 438.780 154.800 V 152.230 C 438.780 152.213 438.767 152.200 438.750 152.200 H 433.550 C 433.533 152.200 433.520 152.213 433.520 152.230 V 154.800 C 433.520 154.830 433.550 154.800 433.520 154.800 H 428.380 C 428.350 154.800 428.380 154.830 428.380 154.800 V 152.230 C 428.380 152.213 428.367 152.200 428.350 152.200 H 423.150 C 423.133 152.200 423.120 152.213 423.120 152.230 V 154.800 C 423.120 154.830 423.150 154.800 423.120 154.800 H 417.980 C 417.950 154.800 417.980 154.830 417.980 154.800 V 152.230 C 417.980 152.213 417.967 152.200 417.950 152.200 H 412.750 C 412.733 152.200 412.720 152.213 412.720 152.230 V 154.800 C 412.720 154.830 412.750 154.800 412.720 154.800 H 407.580 C 407.550 154.800 407.580 154.830 407.580 154.800 V 152.230 C 407.580 152.213 407.567 152.200 407.550 152.200 H 402.350 C 402.333 152.200 402.320 152.213 402.320 152.230 V 154.800 C 402.320 154.830 402.350 154.800 402.320 154.800 H 397.180 C 397.150 154.800 397.180 154.830 397.180 154.800 V 152.230 C 397.180 152.213 397.167 152.200 397.150 152.200 H 391.950 C 391.933 152.200 391.920 152.213 391.920 152.230 V 154.800 C 391.920 154.830 391.950 154.800 391.920 154.800 H 386.780 C 386.750 154.800 386.780 154.830 386.780 154.800 V 152.230 C 386.780 152.213 386.767 152.200 386.750 152.200 H 381.550 C 381.533 152.200 381.520 152.213 381.520 152.230 V 154.800 C 381.520 154.830 381.550 154.800 381.520 154.800 H 376.380 C 376.350 154.800 376.380 154.830 376.380 154.800 V 152.230 C 376.380 152.213 376.367 152.200 376.350 152.200 H 371.150 C 371.133 152.200 371.120 152.213 371.120 152.230 V 154.800 C 371.120 154.830 371.150 154.800 371.120 154.800 H 365.980 C 365.950 154.800 365.980 154.830 365.980 154.800 V 152.230 C 365.980 152.213 365.967 152.200 365.950 152.200 H 360.750 C 360.733 152.200 360.720 152.213 360.720 152.230 V 154.800 C 360.720 154.830 360.750 154.800 360.720 154.800 H 355.580 C 355.550 154.800 355.580 154.830 355.580 154.800 V 152.230 C 355.580 152.213 355.567 152.200 355.550 152.200 H 350.350 C 350.333 152.200 350.320 152.213 350.320 152.230 V 154.800 C 350.320 154.830 350.350 154.800 350.320 154.800 H 345.180 C 345.150 154.800 345.180 154.830 345.180 154.800 V 152.230 C 345.180 152.213 345.167 152.200 345.150 152.200 H 339.950 C 339.933 152.200 339.920 152.213 339.920 152.230 V 154.800 C 339.920 154.830 339.950 154.800 339.920 154.800 H 334.780 C 334.750 154.800 334.780 154.830 334.780 154.800 V 152.230 C 334.780 152.213 334.767 152.200 334.750 152.200 H 329.550 C 329.533 152.200 329.520 152.213 329.520 152.230 V 154.800 C 329.520 154.830 329.550 154.800 329.520 154.800 H 325.750 C 325.733 154.800 325.720 154.813 325.720 154.830 V 202.230 V 206.100 C 325.720 206.130 325.750 206.100 325.720 206.100 H 323.150 C 323.133 206.100 323.120 206.113 323.120 206.130 V 211.330 C 323.120 211.347 323.133 211.360 323.150 211.360 H 325.720 C 325.750 211.360 325.720 211.330 325.720 211.360 V 215.230 C 325.720 215.247 325.733 215.260 325.750 215.260 Z" stroke="rgb(0,0,0)" stroke-width="0.06" />
  <path d="M 521.720 161.230 H 523.120 C 523.150 161.230 523.120 161.200 523.120 161.230 V 164.030 C 523.120 164.060 523.150 164.030 523.120 164.030 H 520.320 C 520.290 164.030 520.320 164.060 520.320 164.030 V 161.230 C 520.320 161.200 520.290 161.230 520.320 161.230 H 521.720 Z" stroke="rgb(0,0,255)" stroke-width="0.06" />
  <path d="M 329.780 161.230 H 331.180 C 331.210 161.230 331.180 161.200 331.180 161.230 V 164.030 C 331.180 164.060 331.210 164.030 331.180 164.030 H 328.380 C 328.350 164.030 328.380 164.060 328.380 164.030 V 161.230 C 328.380 161.200 328.350 161.230 328.380 161.230 H 329.780 Z" stroke="rgb(0,0,255)" stroke-width="0.06" />
</g>
<g id="p-4" style="fill:none;stroke-linecap:round;stroke-linejoin:round;">
  <path d="M 725.910 207.430 H 728.480 C 728.510 207.430 728.480 207.460 728.480 207.430 V 204.890 C 728.480 204.860 728.510 204.890 728.480 204.890 H 723.340 C 723.310 204.890 723.340 204.860 723.340 204.890 V 207.430 C 723.340 207.460 723.310 207.430 723.340 207.430 H 725.910 Z" stroke="rgb(0,0,255)" stroke-width="0.06" />
  <path d="M 715.510 207.430 H 718.080 C 718.110 207.430 718.080 207.460 718.080 207.430 V 204.890 C 718.080 204.860 718.110 204.890 718.080 204.890 H 712.940 C 712.910 204.890 712.940 204.860 712.940 204.890 V 207.430 C 712.940 207.460 712.910 207.430 712.940 207.430 H 715.510 Z" stroke="rgb(0,0,255)" stroke-width="0.06" />
  <path d="M 705.110 207.430 H 707.680 C 707.710 207.430 707.680 207.460 707.680 207.430 V 204.890 C 707.680 204.860 707.710 204.890 707.680 204.890 H 702.540 C 702.510 204.890 702.540 204.860 702.540 204.890 V 207.430 C 702.540 207.460 702.510 207.430 702.540 207.430 H 705.110 Z" stroke="rgb(0,0,255)" stroke-width="0.06" />
  <path d="M 694.710 207.430 H 697.280 C 697.310 207.430 697.280 207.460 697.280 207.430 V 204.890 C 697.280 204.860 697.310 204.890 697.280 204.890 H 692.140 C 692.110 204.890 692.140 204.860 692.140 204.890 V 207.430 C 692.140 207.460 692.110 207.430 692.140 207.430 H 694.710 Z" stroke="rgb(0,0,255)" stroke-width="0.06" />
  <path d="M 684.310 207.430 H 686.880 C 686.910 207.430 686.880 207.460 686.880 207.430 V 204.890 C 686.880 204.860 686.910 204.890 686.880 204.890 H 681.740 C 681.710 204.890 681.740 204.860 681.740 204.890 V 207.430 C 681.740 207.460 681.710 207.430 681.740 207.430 H 684.310 Z" stroke="rgb(0,0,255)" stroke-width="0.06" />
  <path d="M 673.910 207.430 H 676.480 C 676.510 207.430 676.480 207.460 676.480 207.430 V 204.890 C 676.480 204.860 676.510 204.890 676.480 204.890 H 671.340 C 671.310 204.890 671.340 204.860 671.340 204.890 V 207.430 C 671.340 207.460 671.310 207.430 671.340 207.430 H 673.910 Z" stroke="rgb(0,0,255)" stroke-width="0.06" />
  <path d="M 663.510 207.430 H 666.080 C 666.110 207.430 666.080 207.460 666.080 207.430 V 204.890 C 666.080 204.860 666.110 204.890 666.080 204.890 H 660.940 C 660.910 204.890 660.940 204.860 660.940 204.890 V 207.430 C 660.940 207.460 660.910 207.430 660.940 207.430 H 663.510 Z" stroke="rgb(0,0,255)" stroke-width="0.06" />
  <path d="M 653.110 207.430 H 655.680 C 655.710 207.430 655.680 207.460 655.680 207.430 V 204.890 C 655.680 204.860 655.710 204.890 655.680 204.890 H 650.540 C 650.510 204.890 650.540 204.860 650.540 204.890 V 207.430 C 650.540 207.460 650.510 207.430 650.540 207.430 H 653.110 Z" stroke="rgb(0,0,255)" stroke-width="0.06" />
  <path d="M 642.710 207.430 H 645.280 C 645.310 207.430 645.280 207.460 645.280 207.430 V 204.890 C 645.280 204.860 645.310 204.890 645.280 204.890 H 640.140 C 640.110 204.890 640.140 204.860 640.140 204.890 V 207.430 C 640.140 207.460 640.110 207.430 640.140 207.430 H 642.710 Z" stroke="rgb(0,0,255)" stroke-width="0.06" />
  <path d="M 632.310 207.430 H 634.880 C 634.910 207.430 634.880 207.460 634.880 207.430 V 204.890 C 634.880 204.860 634.910 204.890 634.880 204.890 H 629.740 C 629.710 204.890 629.740 204.860 629.740 204.890 V 207.430 C 629.740 207.460 629.710 207.430 629.740 207.430 H 632.310 Z" stroke="rgb(0,0,255)" stroke-width="0.06" />
  <path d="M 621.910 207.430 H 624.480 C 624.510 207.430 624.480 207.460 624.480 207.430 V 204.890 C 624.480 204.860 624.510 204.890 624.480 204.890 H 619.340 C 619.310 204.890 619.340 204.860 619.340 204.890 V 207.430 C 619.340 207.460 619.310 207.430 619.340 207.430 H 621.910 Z" stroke="rgb(0,0,255)" stroke-width="0.06" />
  <path d="M 611.510 207.430 H 614.080 C 614.110 207.430 614.080 207.460 614.080 207.430 V 204.890 C 614.080 204.860 614.110 204.890 614.080 204.890 H 608.940 C 608.910 204.890 608.940 204.860 608.940 204.890 V 207.430 C 608.940 207.460 608.910 207.430 608.940 207.430 H 611.510 Z" stroke="rgb(0,0,255)" stroke-width="0.06" />
  <path d="M 601.110 207.430 H 603.680 C 603.710 207.430 603.680 207.460 603.680 207.430 V 204.890 C 603.680 204.860 603.710 204.890 603.680 204.890 H 598.540 C 598.510 204.890 598.540 204.860 598.540 204.890 V 207.430 C 598.540 207.460 598.510 207.430 598.540 207.430 H 601.110 Z" stroke="rgb(0,0,255)" stroke-width="0.06" />
  <path d="M 590.710 207.430 H 593.280 C 593.310 207.430 593.280 207.460 593.280 207.430 V 204.890 C 593.280 204.860 593.310 204.890 593.280 204.890 H 588.140 C 588.110 204.890 588.140 204.860 588.140 204.890 V 207.430 C 588.140 207.460 588.110 207.430 588.140 207.430 H 590.710 Z" stroke="rgb(0,0,255)" stroke-width="0.06" />
  <path d="M 580.310 207.430 H 582.880 C 582.910 207.430 582.880 207.460 582.880 207.430 V 204.890 C 582.880 204.860 582.910 204.890 582.880 204.890 H 577.740 C 577.710 204.890 577.740 204.860 577.740 204.890 V 207.430 C 577.740 207.460 577.710 207.430 577.740 207.430 H 580.310 Z" stroke="rgb(0,0,255)" stroke-width="0.06" />
  <path d="M 569.910 207.430 H 572.480 C 572.510 207.430 572.480 207.460 572.480 207.430 V 204.890 C 572.480 204.860 572.510 204.890 572.480 204.890 H 567.340 C 567.310 204.890 567.340 204.860 567.340 204.890 V 207.430 C 567.340 207.460 567.310 207.430 567.340 207.430 H 569.910 Z" stroke="rgb(0,0,255)" stroke-width="0.06" />
  <path d="M 559.510 207.430 H 562.080 C 562.110 207.430 562.080 207.460 562.080 207.430 V 204.890 C 562.080 204.860 562.110 204.890 562.080 204.890 H 556.940 C 556.910 204.890 556.940 204.860 556.940 204.890 V 207.430 C 556.940 207.460 556.910 207.430 556.940 207.430 H 559.510 Z" stroke="rgb(0,0,255)" stroke-width="0.06" />
  <path d="M 549.110 207.430 H 551.680 C 551.710 207.430 551.680 207.460 551.680 207.430 V 204.890 C 551.680 204.860 551.710 204.890 551.680 204.890 H 546.540 C 546.510 204.890 546.540 204.860 546.540 204.890 V 207.430 C 546.540 207.460 546.510 207.430 546.540 207.430 H 549.110 Z" stroke="rgb(0,0,255)" stroke-width="0.06" />
  <path d="M 538.710 207.430 H 541.280 C 541.310 207.430 541.280 207.460 541.280 207.430 V 204.890 C 541.280 204.860 541.310 204.890 541.280 204.890 H 536.140 C 536.110 204.890 536.140 204.860 536.140 204.890 V 207.430 C 536.140 207.460 536.110 207.430 536.140 207.430 H 538.710 Z" stroke="rgb(0,0,255)" stroke-width="0.06" />
  <path d="M 732.310 215.260 H 721.910 C 720.992 215.260 720.090 215.018 719.295 214.559 C 718.500 214.100 717.840 213.440 717.381 212.645 C 716.927 211.859 716.274 211.206 715.488 210.753 C 714.702 210.299 713.811 210.060 712.903 210.060 H 551.717 C 550.809 210.060 549.918 210.299 549.132 210.753 C 548.346 211.206 547.693 211.859 547.239 212.645 C 546.780 213.440 546.120 214.100 545.325 214.559 C 544.530 215.018 543.628 215.260 542.710 215.260 H 532.310 C 532.293 215.260 532.280 215.247 532.280 215.230 V 211.360 C 532.280 211.330 532.310 211.360 532.280 211.360 H 529.710 C 529.693 211.360 529.680 211.347 529.680 211.330 V 206.130 C 529.680 206.113 529.693 206.100 529.710 206.100 H 532.280 C 532.310 206.100 532.280 206.130 532.280 206.100 V 202.230 V 154.830 C 532.280 154.813 532.293 154.800 532.310 154.800 H 536.080 C 536.110 154.800 536.080 154.830 536.080 154.800 V 152.230 C 536.080 152.213 536.093 152.200 536.110 152.200 H 541.310 C 541.327 152.200 541.340 152.213 541.340 152.230 V 154.800 C 541.340 154.830 541.310 154.800 541.340 154.800 H 546.480 C 546.510 154.800 546.480 154.830 546.480 154.800 V 152.230 C 546.480 152.213 546.493 152.200 546.510 152.200 H 551.710 C 551.727 152.200 551.740 152.213 551.740 152.230 V 154.800 C 551.740 154.830 551.710 154.800 551.740 154.800 H 556.880 C 556.910 154.800 556.880 154.830 556.880 154.800 V 152.230 C 556.880 152.213 556.893 152.200 556.910 152.200 H 562.110 C 562.127 152.200 562.140 152.213 562.140 152.230 V 154.800 C 562.140 154.830 562.110 154.800 562.140 154.800 H 567.280 C 567.310 154.800 567.280 154.830 567.280 154.800 V 152.230 C 567.280 152.213 567.293 152.200 567.310 152.200 H 572.510 C 572.527 152.200 572.540 152.213 572.540 152.230 V 154.800 C 572.540 154.830 572.510 154.800 572.540 154.800 H 577.680 C 577.710 154.800 577.680 154.830 577.680 154.800 V 152.230 C 577.680 152.213 577.693 152.200 577.710 152.200 H 582.910 C 582.927 152.200 582.940 152.213 582.940 152.230 V 154.800 C 582.940 154.830 582.910 154.800 582.940 154.800 H 588.080 C 588.110 154.800 588.080 154.830 588.080 154.800 V 152.230 C 588.080 152.213 588.093 152.200 588.110 152.200 H 593.310 C 593.327 152.200 593.340 152.213 593.340 152.230 V 154.800 C 593.340 154.830 593.310 154.800 593.340 154.800 H 598.480 C 598.510 154.800 598.480 154.830 598.480 154.800 V 152.230 C 598.480 152.213 598.493 152.200 598.510 152.200 H 603.710 C 603.727 152.200 603.740 152.213 603.740 152.230 V 154.800 C 603.740 154.830 603.710 154.800 603.740 154.800 H 608.880 C 608.910 154.800 608.880 154.830 608.880 154.800 V 152.230 C 608.880 152.213 608.893 152.200 608.910 152.200 H 614.110 C 614.127 152.200 614.140 152.213 614.140 152.230 V 154.800 C 614.140 154.830 614.110 154.800 614.140 154.800 H 619.280 C 619.310 154.800 619.280 154.830 619.280 154.800 V 152.230 C 619.280 152.213 619.293 152.200 619.310 152.200 H 624.510 C 624.527 152.200 624.540 152.213 624.540 152.230 V 154.800 C 624.540 154.830 624.510 154.800 624.540 154.800 H 629.680 C 629.710 154.800 629.680 154.830 629.680 154.800 V 152.230 C 629.680 152.213 629.693 152.200 629.710 152.200 H 634.910 C 634.927 152.200 634.940 152.213 634.940 152.230 V 154.800 C 634.940 154.830 634.910 154.800 634.940 154.800 H 640.080 C 640.110 154.800 640.080 154.830 640.080 154.800 V 152.230 C 640.080 152.213 640.093 152.200 640.110 152.200 H 645.310 C 645.327 152.200 645.340 152.213 645.340 152.230 V 154.800 C 645.340 154.830 645.310 154.800 645.340 154.800 H 650.480 C 650.510 154.800 650.480 154.830 650.480 154.800 V 152.230 C 650.480 152.213 650.493 152.200 650.510 152.200 H 655.710 C 655.727 152.200 655.740 152.213 655.740 152.230 V 154.800 C 655.740 154.830 655.710 154.800 655.740 154.800 H 660.880 C 660.910 154.800 660.880 154.830 660.880 154.800 V 152.230 C 660.880 152.213 660.893 152.200 660.910 152.200 H 666.110 C 666.127 152.200 666.140 152.213 666.140 152.230 V 154.800 C 666.140 154.830 666.110 154.800 666.140 154.800 H 671.280 C 671.310 154.800 671.280 154.830 671.280 154.800 V 152.230 C 671.280 152.213 671.293 152.200 671.310 152.200 H 676.510 C 676.527 152.200 676.540 152.213 676.540 152.230 V 154.800 C 676.540 154.830 676.510 154.800 676.540 154.800 H 681.680 C 681.710 154.800 681.680 154.830 681.680 154.800 V 152.230 C 681.680 152.213 681.693 152.200 681.710 152.200 H 686.910 C 686.927 152.200 686.940 152.213 686.940 152.230 V 154.800 C 686.940 154.830 686.910 154.800 686.940 154.800 H 692.080 C 692.110 154.800 692.080 154.830 692.080 154.800 V 152.230 C 692.080 152.213 692.093 152.200 692.110 152.200 H 697.310 C 697.327 152.200 697.340 152.213 697.340 152.230 V 154.800 C 697.340 154.830 697.310 154.800 697.340 154.800 H 702.480 C 702.510 154.800 702.480 154.830 702.480 154.800 V 152.230 C 702.480 152.213 702.493 152.200 702.510 152.200 H 707.710 C 707.727 152.200 707.740 152.213 707.740 152.230 V 154.800 C 707.740 154.830 707.710 154.800 707.740 154.800 H 712.880 C 712.910 154.800 712.880 154.830 712.880 154.800 V 152.230 C 712.880 152.213 712.893 152.200 712.910 152.200 H 718.110 C 718.127 152.200 718.140 152.213 718.140 152.230 V 154.800 C 718.140 154.830 718.110 154.800 718.140 154.800 H 723.280 C 723.310 154.800 723.280 154.830 723.280 154.800 V 152.230 C 723.280 152.213 723.293 152.200 723.310 152.200 H 728.510 C 728.527 152.200 728.540 152.213 728.540 152.230 V 154.800 C 728.540 154.830 728.510 154.800 728.540 154.800 H 732.310 C 732.327 154.800 732.340 154.813 732.340 154.830 V 202.230 V 206.100 C 732.340 206.130 732.310 206.100 732.340 206.100 H 734.910 C 734.927 206.100 734.940 206.113 734.940 206.130 V 211.330 C 734.940 211.347 734.927 211.360 734.910 211.360 H 732.340 C 732.310 211.360 732.340 211.330 732.340 211.360 V 215.230 C 732.340 215.247 732.327 215.260 732.310 215.260 Z" stroke="rgb(0,0,0)" stroke-width="0.06" />
  <path d="M 536.340 161.230 H 534.940 C 534.910 161.230 534.940 161.200 534.940 161.230 V 164.030 C 534.940 164.060 534.910 164.030 534.940 164.030 H 537.740 C 537.770 164.030 537.740 164.060 537.740 164.030 V 161.230 C 537.740 161.200 537.770 161.230 537.740 161.230 H 536.340 Z" stroke="rgb(0,0,255)" stroke-width="0.06" />
  <path d="M 728.280 161.230 H 726.880 C 726.850 161.230 726.880 161.200 726.880 161.230 V 164.030 C 726.880 164.060 726.850 164.030 726.880 164.030 H 729.680 C 729.710 164.030 729.680 164.060 729.680 164.030 V 161.230 C 729.680 161.200 729.710 161.230 729.680 161.230 H 728.280 Z" stroke="rgb(0,0,255)" stroke-width="0.06" />
</g>
<g id="p-5" style="fill:none;stroke-linecap:round;stroke-linejoin:round;">
  <path d="M 746.270 207.430 H 743.700 C 743.670 207.430 743.700 207.460 743.700 207.430 V 204.890 C 743.700 204.860 743.670 204.890 743.700 204.890 H 748.840 C 748.870 204.890 748.840 204.860 748.840 204.890 V 207.430 C 748.840 207.460 748.870 207.430 748.840 207.430 H 746.270 Z" stroke="rgb(0,0,255)" stroke-width="0.06" />
  <path d="M 756.670 207.430 H 754.100 C 754.070 207.430 754.100 207.460 754.100 207.430 V 204.890 C 754.100 204.860 754.070 204.890 754.100 204.890 H 759.240 C 759.270 204.890 759.240 204.860 759.240 204.890 V 207.430 C 759.240 207.460 759.270 207.430 759.240 207.430 H 756.670 Z" stroke="rgb(0,0,255)" stroke-width="0.06" />
  <path d="M 767.070 207.430 H 764.500 C 764.470 207.430 764.500 207.460 764.500 207.430 V 204.890 C 764.500 204.860 764.470 204.890 764.500 204.890 H 769.640 C 769.670 204.890 769.640 204.860 769.640 204.890 V 207.430 C 769.640 207.460 769.670 207.430 769.640 207.430 H 767.070 Z" stroke="rgb(0,0,255)" stroke-width="0.06" />
  <path d="M 777.470 207.430 H 774.900 C 774.870 207.430 774.900 207.460 774.900 207.430 V 204.890 C 774.900 204.860 774.870 204.890 774.900 204.890 H 780.040 C 780.070 204.890 780.040 204.860 780.040 204.890 V 207.430 C 780.040 207.460 780.070 207.430 780.040 207.430 H 777.470 Z" stroke="rgb(0,0,255)" stroke-width="0.06" />
  <path d="M 787.870 207.430 H 785.300 C 785.270 207.430 785.300 207.460 785.300 207.430 V 204.890 C 785.300 204.860 785.270 204.890 785.300 204.890 H 790.440 C 790.470 204.890 790.440 204.860 790.440 204.890 V 207.430 C 790.440 207.460 790.470 207.430 790.440 207.430 H 787.870 Z" stroke="rgb(0,0,255)" stroke-width="0.06" />
  <path d="M 798.270 207.430 H 795.700 C 795.670 207.430 795.700 207.460 795.700 207.430 V 204.890 C 795.700 204.860 795.670 204.890 795.700 204.890 H 800.840 C 800.870 204.890 800.840 204.860 800.840 204.890 V 207.430 C 800.840 207.460 800.870 207.430 800.840 207.430 H 798.270 Z" stroke="rgb(0,0,255)" stroke-width="0.06" />
  <path d="M 808.670 207.430 H 806.100 C 806.070 207.430 806.100 207.460 806.100 207.430 V 204.890 C 806.100 204.860 806.070 204.890 806.100 204.890 H 811.240 C 811.270 204.890 811.240 204.860 811.240 204.890 V 207.430 C 811.240 207.460 811.270 207.430 811.240 207.430 H 808.670 Z" stroke="rgb(0,0,255)" stroke-width="0.06" />
  <path d="M 819.070 207.430 H 816.500 C 816.470 207.430 816.500 207.460 816.500 207.430 V 204.890 C 816.500 204.860 816.470 204.890 816.500 204.890 H 821.640 C 821.670 204.890 821.640 204.860 821.640 204.890 V 207.430 C 821.640 207.460 821.670 207.430 821.640 207.430 H 819.070 Z" stroke="rgb(0,0,255)" stroke-width="0.06" />
  <path d="M 829.470 207.430 H 826.900 C 826.870 207.430 826.900 207.460 826.900 207.430 V 204.890 C 826.900 204.860 826.870 204.890 826.900 204.890 H 832.040 C 832.070 204.890 832.040 204.860 832.040 204.890 V 207.430 C 832.040 207.460 832.070 207.430 832.040 207.430 H 829.470 Z" stroke="rgb(0,0,255)" stroke-width="0.06" />
  <path d="M 839.870 207.430 H 837.300 C 837.270 207.430 837.300 207.460 837.300 207.430 V 204.890 C 837.300 204.860 837.270 204.890 837.300 204.890 H 842.440 C 842.470 204.890 842.440 204.860 842.440 204.890 V 207.430 C 842.440 207.460 842.470 207.430 842.440 207.430 H 839.870 Z" stroke="rgb(0,0,255)" stroke-width="0.06" />
  <path d="M 850.270 207.430 H 847.700 C 847.670 207.430 847.700 207.460 847.700 207.430 V 204.890 C 847.700 204.860 847.670 204.890 847.700 204.890 H 852.840 C 852.870 204.890 852.840 204.860 852.840 204.890 V 207.430 C 852.840 207.460 852.870 207.430 852.840 207.430 H 850.270 Z" stroke="rgb(0,0,255)" stroke-width="0.06" />
  <path d="M 860.670 207.430 H 858.100 C 858.070 207.430 858.100 207.460 858.100 207.430 V 204.890 C 858.100 204.860 858.070 204.890 858.100 204.890 H 863.240 C 863.270 204.890 863.240 204.860 863.240 204.890 V 207.430 C 863.240 207.460 863.270 207.430 863.240 207.430 H 860.670 Z" stroke="rgb(0,0,255)" stroke-width="0.06" />
  <path d="M 871.070 207.430 H 868.500 C 868.470 207.430 868.500 207.460 868.500 207.430 V 204.890 C 868.500 204.860 868.470 204.890 868.500 204.890 H 873.640 C 873.670 204.890 873.640 204.860 873.640 204.890 V 207.430 C 873.640 207.460 873.670 207.430 873.640 207.430 H 871.070 Z" stroke="rgb(0,0,255)" stroke-width="0.06" />
  <path d="M 881.470 207.430 H 878.900 C 878.870 207.430 878.900 207.460 878.900 207.430 V 204.890 C 878.900 204.860 878.870 204.890 878.900 204.890 H 884.040 C 884.070 204.890 884.040 204.860 884.040 204.890 V 207.430 C 884.040 207.460 884.070 207.430 884.040 207.430 H 881.470 Z" stroke="rgb(0,0,255)" stroke-width="0.06" />
  <path d="M 738.870 215.260 H 749.270 C 750.188 215.260 751.090 215.018 751.885 214.559 C 752.680 214.100 753.340 213.440 753.799 212.645 C 754.253 211.859 754.906 211.206 755.692 210.753 C 756.478 210.299 757.369 210.060 758.277 210.060 H 869.463 C 870.371 210.060 871.262 210.299 872.048 210.753 C 872.834 211.206 873.487 211.859 873.941 212.645 C 874.400 213.440 875.060 214.100 875.855 214.559 C 876.650 215.018 877.552 215.260 878.470 215.260 H 888.870 H 891.470 C 891.487 215.260 891.500 215.247 891.500 215.230 V 211.330 C 891.500 211.313 891.487 211.300 891.470 211.300 H 888.900 C 888.870 211.300 888.900 211.330 888.900 211.300 V 206.160 C 888.900 206.130 888.870 206.160 888.900 206.160 H 891.470 C 891.487 206.160 891.500 206.147 891.500 206.130 V 202.230 C 891.500 202.213 891.487 202.200 891.470 202.200 H 888.870 H 738.870 H 736.270 C 736.253 202.200 736.240 202.213 736.240 202.230 V 206.130 C 736.240 206.147 736.253 206.160 736.270 206.160 H 738.840 C 738.870 206.160 738.840 206.130 738.840 206.160 V 211.300 C 738.840 211.330 738.870 211.300 738.840 211.300 H 736.270 C 736.253 211.300 736.240 211.313 736.240 211.330 V 215.230 C 736.240 215.247 736.253 215.260 736.270 215.260 H 738.870 Z" stroke="rgb(0,0,0)" stroke-width="0.06" />
</g>
<g id="p-6" style="fill:none;stroke-linecap:round;stroke-linejoin:round;">
  <path d="M 741.440 195.435 V 198.005 C 741.440 198.035 741.470 198.005 741.440 198.005 H 738.900 C 738.870 198.005 738.900 198.035 738.900 198.005 V 192.865 C 738.900 192.835 738.870 192.865 738.900 192.865 H 741.440 C 741.470 192.865 741.440 192.835 741.440 192.865 V 195.435 Z" stroke="rgb(0,0,255)" stroke-width="0.06" />
  <path d="M 741.440 185.035 V 187.605 C 741.440 187.635 741.470 187.605 741.440 187.605 H 738.900 C 738.870 187.605 738.900 187.635 738.900 187.605 V 182.465 C 738.900 182.435 738.870 182.465 738.900 182.465 H 741.440 C 741.470 182.465 741.440 182.435 741.440 182.465 V 185.035 Z" stroke="rgb(0,0,255)" stroke-width="0.06" />
  <path d="M 741.440 174.635 V 177.205 C 741.440 177.235 741.470 177.205 741.440 177.205 H 738.900 C 738.870 177.205 738.900 177.235 738.900 177.205 V 172.065 C 738.900 172.035 738.870 172.065 738.900 172.065 H 741.440 C 741.470 172.065 741.440 172.035 741.440 172.065 V 174.635 Z" stroke="rgb(0,0,255)" stroke-width="0.06" />
  <path d="M 738.870 200.900 H 888.870 H 891.470 C 891.487 200.900 891.500 200.887 891.500 200.870 V 153.730 C 891.500 153.713 891.487 153.700 891.470 153.700 H 888.870 H 738.870 H 736.270 C 736.253 153.700 736.240 153.713 736.240 153.730 V 200.870 C 736.240 200.887 736.253 200.900 736.270 200.900 H 738.870 Z" stroke="rgb(0,0,0)" stroke-width="0.06" />
  <path d="M 883.670 161.790 V 165.660 C 883.670 165.690 883.700 165.660 883.670 165.660 H 881.130 C 881.100 165.660 881.130 165.690 881.130 165.660 V 163.220 C 881.130 163.203 881.117 163.190 881.100 163.190 H 875.900 C 875.883 163.190 875.870 163.203 875.870 163.220 V 165.660 C 875.870 165.690 875.900 165.660 875.870 165.660 H 873.330 C 873.300 165.660 873.330 165.690 873.330 165.660 V 157.920 C 873.330 157.890 873.300 157.920 873.330 157.920 H 875.870 C 875.900 157.920 875.870 157.890 875.870 157.920 V 160.360 C 875.870 160.377 875.883 160.390 875.900 160.390 H 881.100 C 881.117 160.390 881.130 160.377 881.130 160.360 V 157.920 C 881.130 157.890 881.100 157.920 881.130 157.920 H 883.670 C 883.700 157.920 883.670 157.890 883.670 157.920 V 161.790 Z" stroke="rgb(0,0,255)" stroke-width="0.06" />
  <path d="M 886.300 174.895 V 172.325 C 886.300 172.295 886.270 172.325 886.300 172.325 H 888.840 C 888.870 172.325 888.840 172.295 888.840 172.325 V 177.465 C 888.840 177.495 888.870 177.465 888.840 177.465 H 886.300 C 886.270 177.465 886.300 177.495 886.300 177.465 V 174.895 Z" stroke="rgb(0,0,255)" stroke-width="0.06" />
  <path d="M 886.300 185.295 V 182.725 C 886.300 182.695 886.270 182.725 886.300 182.725 H 888.840 C 888.870 182.725 888.840 182.695 888.840 182.725 V 187.865 C 888.840 187.895 888.870 187.865 888.840 187.865 H 886.300 C 886.270 187.865 886.300 187.895 886.300 187.865 V 185.295 Z" stroke="rgb(0,0,255)" stroke-width="0.06" />
  <path d="M 886.300 195.695 V 193.125 C 886.300 193.095 886.270 193.125 886.300 193.125 H 888.840 C 888.870 193.125 888.840 193.095 888.840 193.125 V 198.265 C 888.840 198.295 888.870 198.265 888.840 198.265 H 886.300 C 886.270 198.265 886.300 198.295 886.300 198.265 V 195.695 Z" stroke="rgb(0,0,255)" stroke-width="0.06" />
  <path d="M 744.070 161.530 V 157.660 C 744.070 157.630 744.040 157.660 744.070 157.660 H 746.610 C 746.640 157.660 746.610 157.630 746.610 157.660 V 160.100 C 746.610 160.117 746.623 160.130 746.640 160.130 H 751.840 C 751.857 160.130 751.870 160.117 751.870 160.100 V 157.660 C 751.870 157.630 751.840 157.660 751.870 157.660 H 754.410 C 754.440 157.660 754.410 157.630 754.410 157.660 V 165.400 C 754.410 165.430 754.440 165.400 754.410 165.400 H 751.870 C 751.840 165.400 751.870 165.430 751.870 165.400 V 162.960 C 751.870 162.943 751.857 162.930 751.840 162.930 H 746.640 C 746.623 162.930 746.610 162.943 746.610 162.960 V 165.400 C 746.610 165.430 746.640 165.400 746.610 165.400 H 744.070 C 744.040 165.400 744.070 165.430 744.070 165.400 V 161.530 Z" stroke="rgb(0,0,255)" stroke-width="0.06" />
</g>
<g id="p-7" style="fill:none;stroke-linecap:round;stroke-linejoin:round;">
  <path d="M 902.830 207.430 H 900.260 C 900.230 207.430 900.260 207.460 900.260 207.430 V 204.890 C 900.260 204.860 900.230 204.890 900.260 204.890 H 905.400 C 905.430 204.890 905.400 204.860 905.400 204.890 V 207.430 C 905.400 207.460 905.430 207.430 905.400 207.430 H 902.830 Z" stroke="rgb(0,0,255)" stroke-width="0.06" />
  <path d="M 913.230 207.430 H 910.660 C 910.630 207.430 910.660 207.460 910.660 207.430 V 204.890 C 910.660 204.860 910.630 204.890 910.660 204.890 H 915.800 C 915.830 204.890 915.800 204.860 915.800 204.890 V 207.430 C 915.800 207.460 915.830 207.430 915.800 207.430 H 913.230 Z" stroke="rgb(0,0,255)" stroke-width="0.06" />
  <path d="M 923.630 207.430 H 921.060 C 921.030 207.430 921.060 207.460 921.060 207.430 V 204.890 C 921.060 204.860 921.030 204.890 921.060 204.890 H 926.200 C 926.230 204.890 926.200 204.860 926.200 204.890 V 207.430 C 926.200 207.460 926.230 207.430 926.200 207.430 H 923.630 Z" stroke="rgb(0,0,255)" stroke-width="0.06" />
  <path d="M 934.030 207.430 H 931.460 C 931.430 207.430 931.460 207.460 931.460 207.430 V 204.890 C 931.460 204.860 931.430 204.890 931.460 204.890 H 936.600 C 936.630 204.890 936.600 204.860 936.600 204.890 V 207.430 C 936.600 207.460 936.630 207.430 936.600 207.430 H 934.030 Z" stroke="rgb(0,0,255)" stroke-width="0.06" />
  <path d="M 944.430 207.430 H 941.860 C 941.830 207.430 941.860 207.460 941.860 207.430 V 204.890 C 941.860 204.860 941.830 204.890 941.860 204.890 H 947.000 C 947.030 204.890 947.000 204.860 947.000 204.890 V 207.430 C 947.000 207.460 947.030 207.430 947.000 207.430 H 944.430 Z" stroke="rgb(0,0,255)" stroke-width="0.06" />
  <path d="M 954.830 207.430 H 952.260 C 952.230 207.430 952.260 207.460 952.260 207.430 V 204.890 C 952.260 204.860 952.230 204.890 952.260 204.890 H 957.400 C 957.430 204.890 957.400 204.860 957.400 204.890 V 207.430 C 957.400 207.460 957.430 207.430 957.400 207.430 H 954.830 Z" stroke="rgb(0,0,255)" stroke-width="0.06" />
  <path d="M 965.230 207.430 H 962.660 C 962.630 207.430 962.660 207.460 962.660 207.430 V 204.890 C 962.660 204.860 962.630 204.890 962.660 204.890 H 967.800 C 967.830 204.890 967.800 204.860 967.800 204.890 V 207.430 C 967.800 207.460 967.830 207.430 967.800 207.430 H 965.230 Z" stroke="rgb(0,0,255)" stroke-width="0.06" />
  <path d="M 975.630 207.430 H 973.060 C 973.030 207.430 973.060 207.460 973.060 207.430 V 204.890 C 973.060 204.860 973.030 204.890 973.060 204.890 H 978.200 C 978.230 204.890 978.200 204.860 978.200 204.890 V 207.430 C 978.200 207.460 978.230 207.430 978.200 207.430 H 975.630 Z" stroke="rgb(0,0,255)" stroke-width="0.06" />
  <path d="M 986.030 207.430 H 983.460 C 983.430 207.430 983.460 207.460 983.460 207.430 V 204.890 C 983.460 204.860 983.430 204.890 983.460 204.890 H 988.600 C 988.630 204.890 988.600 204.860 988.600 204.890 V 207.430 C 988.600 207.460 988.630 207.430 988.600 207.430 H 986.030 Z" stroke="rgb(0,0,255)" stroke-width="0.06" />
  <path d="M 996.430 207.430 H 993.860 C 993.830 207.430 993.860 207.460 993.860 207.430 V 204.890 C 993.860 204.860 993.830 204.890 993.860 204.890 H 999.000 C 999.030 204.890 999.000 204.860 999.000 204.890 V 207.430 C 999.000 207.460 999.030 207.430 999.000 207.430 H 996.430 Z" stroke="rgb(0,0,255)" stroke-width="0.06" />
  <path d="M 1006.830 207.430 H 1004.260 C 1004.230 207.430 1004.260 207.460 1004.260 207.430 V 204.890 C 1004.260 204.860 1004.230 204.890 1004.260 204.890 H 1009.400 C 1009.430 204.890 1009.400 204.860 1009.400 204.890 V 207.430 C 1009.400 207.460 1009.430 207.430 1009.400 207.430 H 1006.830 Z" stroke="rgb(0,0,255)" stroke-width="0.06" />
  <path d="M 1017.230 207.430 H 1014.660 C 1014.630 207.430 1014.660 207.460 1014.660 207.430 V 204.890 C 1014.660 204.860 1014.630 204.890 1014.660 204.890 H 1019.800 C 1019.830 204.890 1019.800 204.860 1019.800 204.890 V 207.430 C 1019.800 207.460 1019.830 207.430 1019.800 207.430 H 1017.230 Z" stroke="rgb(0,0,255)" stroke-width="0.06" />
  <path d="M 1027.630 207.430 H 1025.060 C 1025.030 207.430 1025.060 207.460 1025.060 207.430 V 204.890 C 1025.060 204.860 1025.030 204.890 1025.060 204.890 H 1030.200 C 1030.230 204.890 1030.200 204.860 1030.200 204.890 V 207.430 C 1030.200 207.460 1030.230 207.430 1030.200 207.430 H 1027.630 Z" stroke="rgb(0,0,255)" stroke-width="0.06" />
  <path d="M 1038.030 207.430 H 1035.460 C 1035.430 207.430 1035.460 207.460 1035.460 207.430 V 204.890 C 1035.460 204.860 1035.430 204.890 1035.460 204.890 H 1040.600 C 1040.630 204.890 1040.600 204.860 1040.600 204.890 V 207.430 C 1040.600 207.460 1040.630 207.430 1040.600 207.430 H 1038.030 Z" stroke="rgb(0,0,255)" stroke-width="0.06" />
  <path d="M 895.430 215.260 H 905.830 C 906.748 215.260 907.650 215.018 908.445 214.559 C 909.240 214.100 909.900 213.440 910.359 212.645 C 910.813 211.859 911.466 211.206 912.252 210.753 C 913.038 210.299 913.929 210.060 914.837 210.060 H 1026.023 C 1026.931 210.060 1027.822 210.299 1028.608 210.753 C 1029.394 211.206 1030.047 211.859 1030.501 212.645 C 1030.960 213.440 1031.620 214.100 1032.415 214.559 C 1033.210 215.018 1034.112 215.260 1035.030 215.260 H 1045.430 H 1048.030 C 1048.047 215.260 1048.060 215.247 1048.060 215.230 V 211.330 C 1048.060 211.313 1048.047 211.300 1048.030 211.300 H 1045.460 C 1045.430 211.300 1045.460 211.330 1045.460 211.300 V 206.160 C 1045.460 206.130 1045.430 206.160 1045.460 206.160 H 1048.030 C 1048.047 206.160 1048.060 206.147 1048.060 206.130 V 202.230 C 1048.060 202.213 1048.047 202.200 1048.030 202.200 H 1045.430 H 895.430 H 892.830 C 892.813 202.200 892.800 202.213 892.800 202.230 V 206.130 C 892.800 206.147 892.813 206.160 892.830 206.160 H 895.400 C 895.430 206.160 895.400 206.130 895.400 206.160 V 211.300 C 895.400 211.330 895.430 211.300 895.400 211.300 H 892.830 C 892.813 211.300 892.800 211.313 892.800 211.330 V 215.230 C 892.800 215.247 892.813 215.260 892.830 215.260 H 895.430 Z" stroke="rgb(0,0,0)" stroke-width="0.06" />
</g>
<g id="p-8" style="fill:none;stroke-linecap:round;stroke-linejoin:round;">
  <path d="M 898.000 195.435 V 198.005 C 898.000 198.035 898.030 198.005 898.000 198.005 H 895.460 C 895.430 198.005 895.460 198.035 895.460 198.005 V 192.865 C 895.460 192.835 895.430 192.865 895.460 192.865 H 898.000 C 898.030 192.865 898.000 192.835 898.000 192.865 V 195.435 Z" stroke="rgb(0,0,255)" stroke-width="0.06" />
  <path d="M 898.000 185.035 V 187.605 C 898.000 187.635 898.030 187.605 898.000 187.605 H 895.460 C 895.430 187.605 895.460 187.635 895.460 187.605 V 182.465 C 895.460 182.435 895.430 182.465 895.460 182.465 H 898.000 C 898.030 182.465 898.000 182.435 898.000 182.465 V 185.035 Z" stroke="rgb(0,0,255)" stroke-width="0.06" />
  <path d="M 898.000 174.635 V 177.205 C 898.000 177.235 898.030 177.205 898.000 177.205 H 895.460 C 895.430 177.205 895.460 177.235 895.460 177.205 V 172.065 C 895.460 172.035 895.430 172.065 895.460 172.065 H 898.000 C 898.030 172.065 898.000 172.035 898.000 172.065 V 174.635 Z" stroke="rgb(0,0,255)" stroke-width="0.06" />
  <path d="M 895.430 200.900 H 1045.430 H 1048.030 C 1048.047 200.900 1048.060 200.887 1048.060 200.870 V 153.730 C 1048.060 153.713 1048.047 153.700 1048.030 153.700 H 1045.430 H 895.430 H 892.830 C 892.813 153.700 892.800 153.713 892.800 153.730 V 200.870 C 892.800 200.887 892.813 200.900 892.830 200.900 H 895.430 Z" stroke="rgb(0,0,0)" stroke-width="0.06" />
  <path d="M 1040.230 161.790 V 165.660 C 1040.230 165.690 1040.260 165.660 1040.230 165.660 H 1037.690 C 1037.660 165.660 1037.690 165.690 1037.690 165.660 V 163.220 C 1037.690 163.203 1037.677 163.190 1037.660 163.190 H 1032.460 C 1032.443 163.190 1032.430 163.203 1032.430 163.220 V 165.660 C 1032.430 165.690 1032.460 165.660 1032.430 165.660 H 1029.890 C 1029.860 165.660 1029.890 165.690 1029.890 165.660 V 157.920 C 1029.890 157.890 1029.860 157.920 1029.890 157.920 H 1032.430 C 1032.460 157.920 1032.430 157.890 1032.430 157.920 V 160.360 C 1032.430 160.377 1032.443 160.390 1032.460 160.390 H 1037.660 C 1037.677 160.390 1037.690 160.377 1037.690 160.360 V 157.920 C 1037.690 157.890 1037.660 157.920 1037.690 157.920 H 1040.230 C 1040.260 157.920 1040.230 157.890 1040.230 157.920 V 161.790 Z" stroke="rgb(0,0,255)" stroke-width="0.06" />
  <path d="M 1042.860 174.895 V 172.325 C 1042.860 172.295 1042.830 172.325 1042.860 172.325 H 1045.400 C 1045.430 172.325 1045.400 172.295 1045.400 172.325 V 177.465 C 1045.400 177.495 1045.430 177.465 1045.400 177.465 H 1042.860 C 1042.830 177.465 1042.860 177.495 1042.860 177.465 V 174.895 Z" stroke="rgb(0,0,255)" stroke-width="0.06" />
  <path d="M 1042.860 185.295 V 182.725 C 1042.860 182.695 1042.830 182.725 1042.860 182.725 H 1045.400 C 1045.430 182.725 1045.400 182.695 1045.400 182.725 V 187.865 C 1045.400 187.895 1045.430 187.865 1045.400 187.865 H 1042.860 C 1042.830 187.865 1042.860 187.895 1042.860 187.865 V 185.295 Z" stroke="rgb(0,0,255)" stroke-width="0.06" />
  <path d="M 1042.860 195.695 V 193.125 C 1042.860 193.095 1042.830 193.125 1042.860 193.125 H 1045.400 C 1045.430 193.125 1045.400 193.095 1045.400 193.125 V 198.265 C 1045.400 198.295 1045.430 198.265 1045.400 198.265 H 1042.860 C 1042.830 198.265 1042.860 198.295 1042.860 198.265 V 195.695 Z" stroke="rgb(0,0,255)" stroke-width="0.06" />
  <path d="M 900.630 161.530 V 157.660 C 900.630 157.630 900.600 157.660 900.630 157.660 H 903.170 C 903.200 157.660 903.170 157.630 903.170 157.660 V 160.100 C 903.170 160.117 903.183 160.130 903.200 160.130 H 908.400 C 908.417 160.130 908.430 160.117 908.430 160.100 V 157.660 C 908.430 157.630 908.400 157.660 908.430 157.660 H 910.970 C 911.000 157.660 910.970 157.630 910.970 157.660 V 165.400 C 910.970 165.430 911.000 165.400 910.970 165.400 H 908.430 C 908.400 165.400 908.430 165.430 908.430 165.400 V 162.960 C 908.430 162.943 908.417 162.930 908.400 162.930 H 903.200 C 903.183 162.930 903.170 162.943 903.170 162.960 V 165.400 C 903.170 165.430 903.200 165.400 903.170 165.400 H 900.630 C 900.600 165.400 900.630 165.430 900.630 165.400 V 161.530 Z" stroke="rgb(0,0,255)" stroke-width="0.06" />
</g>
<g id="p-9" style="fill:none;stroke-linecap:round;stroke-linejoin:round;">
  <path d="M 1051.990 215.260 H 1057.190 C 1057.207 215.260 1057.220 215.247 1057.220 215.230 V 212.630 V 180.960 V 178.360 C 1057.220 178.343 1057.207 178.330 1057.190 178.330 H 1051.990 C 1051.973 178.330 1051.960 178.343 1051.960 178.360 V 180.960 V 183.765 C 1051.960 183.795 1051.990 183.765 1051.960 183.765 H 1049.390 C 1049.373 183.765 1049.360 183.778 1049.360 183.795 V 188.995 C 1049.360 189.012 1049.373 189.025 1049.390 189.025 H 1051.960 C 1051.990 189.025 1051.960 188.995 1051.960 189.025 V 194.165 C 1051.960 194.195 1051.990 194.165 1051.960 194.165 H 1049.390 C 1049.373 194.165 1049.360 194.178 1049.360 194.195 V 199.395 C 1049.360 199.412 1049.373 199.425 1049.390 199.425 H 1051.960 C 1051.990 199.425 1051.960 199.395 1051.960 199.425 V 204.565 C 1051.960 204.595 1051.990 204.565 1051.960 204.565 H 1049.390 C 1049.373 204.565 1049.360 204.578 1049.360 204.595 V 209.795 C 1049.360 209.812 1049.373 209.825 1049.390 209.825 H 1051.960 C 1051.990 209.825 1051.960 209.795 1051.960 209.825 V 212.630 V 215.230 C 1051.960 215.247 1051.973 215.260 1051.990 215.260 Z" stroke="rgb(0,0,0)" stroke-width="0.06" />
</g>
<g id="p-10" style="fill:none;stroke-linecap:round;stroke-linejoin:round;">
  <path d="M 1061.150 215.260 H 1066.350 C 1066.367 215.260 1066.380 215.247 1066.380 215.230 V 212.630 V 180.960 V 178.360 C 1066.380 178.343 1066.367 178.330 1066.350 178.330 H 1061.150 C 1061.133 178.330 1061.120 178.343 1061.120 178.360 V 180.960 V 183.765 C 1061.120 183.795 1061.150 183.765 1061.120 183.765 H 1058.550 C 1058.533 183.765 1058.520 183.778 1058.520 183.795 V 188.995 C 1058.520 189.012 1058.533 189.025 1058.550 189.025 H 1061.120 C 1061.150 189.025 1061.120 188.995 1061.120 189.025 V 194.165 C 1061.120 194.195 1061.150 194.165 1061.120 194.165 H 1058.550 C 1058.533 194.165 1058.520 194.178 1058.520 194.195 V 199.395 C 1058.520 199.412 1058.533 199.425 1058.550 199.425 H 1061.120 C 1061.150 199.425 1061.120 199.395 1061.120 199.425 V 204.565 C 1061.120 204.595 1061.150 204.565 1061.120 204.565 H 1058.550 C 1058.533 204.565 1058.520 204.578 1058.520 204.595 V 209.795 C 1058.520 209.812 1058.533 209.825 1058.550 209.825 H 1061.120 C 1061.150 209.825 1061.120 209.795 1061.120 209.825 V 212.630 V 215.230 C 1061.120 215.247 1061.133 215.260 1061.150 215.260 Z" stroke="rgb(0,0,0)" stroke-width="0.06" />
</g>
<g id="p-11" style="fill:none;stroke-linecap:round;stroke-linejoin:round;">
  <path d="M 1070.310 215.260 H 1075.510 C 1075.527 215.260 1075.540 215.247 1075.540 215.230 V 212.630 V 180.960 V 178.360 C 1075.540 178.343 1075.527 178.330 1075.510 178.330 H 1070.310 C 1070.293 178.330 1070.280 178.343 1070.280 178.360 V 180.960 V 183.765 C 1070.280 183.795 1070.310 183.765 1070.280 183.765 H 1067.710 C 1067.693 183.765 1067.680 183.778 1067.680 183.795 V 188.995 C 1067.680 189.012 1067.693 189.025 1067.710 189.025 H 1070.280 C 1070.310 189.025 1070.280 188.995 1070.280 189.025 V 194.165 C 1070.280 194.195 1070.310 194.165 1070.280 194.165 H 1067.710 C 1067.693 194.165 1067.680 194.178 1067.680 194.195 V 199.395 C 1067.680 199.412 1067.693 199.425 1067.710 199.425 H 1070.280 C 1070.310 199.425 1070.280 199.395 1070.280 199.425 V 204.565 C 1070.280 204.595 1070.310 204.565 1070.280 204.565 H 1067.710 C 1067.693 204.565 1067.680 204.578 1067.680 204.595 V 209.795 C 1067.680 209.812 1067.693 209.825 1067.710 209.825 H 1070.280 C 1070.310 209.825 1070.280 209.795 1070.280 209.825 V 212.630 V 215.230 C 1070.280 215.247 1070.293 215.260 1070.310 215.260 Z" stroke="rgb(0,0,0)" stroke-width="0.06" />
</g>
<g id="p-12" style="fill:none;stroke-linecap:round;stroke-linejoin:round;">
  <path d="M 1079.470 215.260 H 1084.670 C 1084.687 215.260 1084.700 215.247 1084.700 215.230 V 212.630 V 180.960 V 178.360 C 1084.700 178.343 1084.687 178.330 1084.670 178.330 H 1079.470 C 1079.453 178.330 1079.440 178.343 1079.440 178.360 V 180.960 V 183.765 C 1079.440 183.795 1079.470 183.765 1079.440 183.765 H 1076.870 C 1076.853 183.765 1076.840 183.778 1076.840 183.795 V 188.995 C 1076.840 189.012 1076.853 189.025 1076.870 189.025 H 1079.440 C 1079.470 189.025 1079.440 188.995 1079.440 189.025 V 194.165 C 1079.440 194.195 1079.470 194.165 1079.440 194.165 H 1076.870 C 1076.853 194.165 1076.840 194.178 1076.840 194.195 V 199.395 C 1076.840 199.412 1076.853 199.425 1076.870 199.425 H 1079.440 C 1079.470 199.425 1079.440 199.395 1079.440 199.425 V 204.565 C 1079.440 204.595 1079.470 204.565 1079.440 204.565 H 1076.870 C 1076.853 204.565 1076.840 204.578 1076.840 204.595 V 209.795 C 1076.840 209.812 1076.853 209.825 1076.870 209.825 H 1079.440 C 1079.470 209.825 1079.440 209.795 1079.440 209.825 V 212.630 V 215.230 C 1079.440 215.247 1079.453 215.260 1079.470 215.260 Z" stroke="rgb(0,0,0)" stroke-width="0.06" />
</g>
<g id="p-13" style="fill:none;stroke-linecap:round;stroke-linejoin:round;">
  <path d="M 1086.030 212.140 H 1088.600 C 1088.630 212.140 1088.600 212.110 1088.600 212.140 V 212.630 C 1088.600 212.647 1088.613 212.660 1088.630 212.660 H 1093.800 C 1093.830 212.660 1093.800 212.630 1093.800 212.660 V 215.230 C 1093.800 215.247 1093.813 215.260 1093.830 215.260 H 1096.430 C 1096.447 215.260 1096.460 215.247 1096.460 215.230 V 212.660 C 1096.460 212.630 1096.430 212.660 1096.460 212.660 H 1104.230 C 1104.247 212.660 1104.260 212.647 1104.260 212.630 V 210.060 C 1104.260 210.030 1104.230 210.060 1104.260 210.060 H 1106.830 C 1106.847 210.060 1106.860 210.047 1106.860 210.030 V 207.430 C 1106.860 207.413 1106.847 207.400 1106.830 207.400 H 1101.630 C 1101.613 207.400 1101.600 207.413 1101.600 207.430 V 208.698 C 1101.600 208.730 1101.632 208.700 1101.600 208.698 L 1088.923 207.811 C 1088.906 207.810 1088.891 207.824 1088.891 207.841 V 209.141 C 1088.891 209.157 1088.903 209.170 1088.919 209.171 L 1101.628 210.060 C 1101.622 210.059 1101.616 210.057 1101.611 210.053 C 1101.606 210.049 1101.603 210.044 1101.601 210.038 C 1101.599 210.032 1101.600 210.026 1101.602 210.020 C 1101.604 210.014 1101.608 210.009 1101.613 210.005 C 1101.618 210.002 1101.624 210.000 1101.630 210.000 H 1088.660 C 1088.630 210.000 1088.660 210.030 1088.660 210.000 V 207.430 C 1088.660 207.413 1088.647 207.400 1088.630 207.400 H 1086.030 C 1086.013 207.400 1086.000 207.413 1086.000 207.430 V 212.110 C 1086.000 212.127 1086.013 212.140 1086.030 212.140 Z" stroke="rgb(0,0,0)" stroke-width="0.06" />
</g>
<g id="p-14" style="fill:none;stroke-linecap:round;stroke-linejoin:round;">
  <path d="M 1108.190 212.140 H 1110.760 C 1110.790 212.140 1110.760 212.110 1110.760 212.140 V 212.630 C 1110.760 212.647 1110.773 212.660 1110.790 212.660 H 1115.960 C 1115.990 212.660 1115.960 212.630 1115.960 212.660 V 215.230 C 1115.960 215.247 1115.973 215.260 1115.990 215.260 H 1118.590 C 1118.607 215.260 1118.620 215.247 1118.620 215.230 V 212.660 C 1118.620 212.630 1118.590 212.660 1118.620 212.660 H 1126.390 C 1126.407 212.660 1126.420 212.647 1126.420 212.630 V 210.060 C 1126.420 210.030 1126.390 210.060 1126.420 210.060 H 1128.990 C 1129.007 210.060 1129.020 210.047 1129.020 210.030 V 207.430 C 1129.020 207.413 1129.007 207.400 1128.990 207.400 H 1123.790 C 1123.773 207.400 1123.760 207.413 1123.760 207.430 V 208.698 C 1123.760 208.730 1123.792 208.700 1123.760 208.698 L 1111.083 207.811 C 1111.066 207.810 1111.051 207.824 1111.051 207.841 V 209.141 C 1111.051 209.157 1111.063 209.170 1111.079 209.171 L 1123.788 210.060 C 1123.782 210.059 1123.776 210.057 1123.771 210.053 C 1123.766 210.049 1123.763 210.044 1123.761 210.038 C 1123.759 210.032 1123.760 210.026 1123.762 210.020 C 1123.764 210.014 1123.768 210.009 1123.773 210.005 C 1123.778 210.002 1123.784 210.000 1123.790 210.000 H 1110.820 C 1110.790 210.000 1110.820 210.030 1110.820 210.000 V 207.430 C 1110.820 207.413 1110.807 207.400 1110.790 207.400 H 1108.190 C 1108.173 207.400 1108.160 207.413 1108.160 207.430 V 212.110 C 1108.160 212.127 1108.173 212.140 1108.190 212.140 Z" stroke="rgb(0,0,0)" stroke-width="0.06" />
</g>
<g id="p-15" style="fill:none;stroke-linecap:round;stroke-linejoin:round;">
  <path d="M 1086.030 202.980 H 1088.600 C 1088.630 202.980 1088.600 202.950 1088.600 202.980 V 203.470 C 1088.600 203.487 1088.613 203.500 1088.630 203.500 H 1093.800 C 1093.830 203.500 1093.800 203.470 1093.800 203.500 V 206.070 C 1093.800 206.087 1093.813 206.100 1093.830 206.100 H 1096.430 C 1096.447 206.100 1096.460 206.087 1096.460 206.070 V 203.500 C 1096.460 203.470 1096.430 203.500 1096.460 203.500 H 1104.230 C 1104.247 203.500 1104.260 203.487 1104.260 203.470 V 200.900 C 1104.260 200.870 1104.230 200.900 1104.260 200.900 H 1106.830 C 1106.847 200.900 1106.860 200.887 1106.860 200.870 V 198.270 C 1106.860 198.253 1106.847 198.240 1106.830 198.240 H 1101.630 C 1101.613 198.240 1101.600 198.253 1101.600 198.270 V 199.538 C 1101.600 199.570 1101.632 199.540 1101.600 199.538 L 1088.923 198.651 C 1088.906 198.650 1088.891 198.664 1088.891 198.681 V 199.981 C 1088.891 199.997 1088.903 200.010 1088.919 200.011 L 1101.628 200.900 C 1101.622 200.899 1101.616 200.897 1101.611 200.893 C 1101.606 200.889 1101.603 200.884 1101.601 200.878 C 1101.599 200.872 1101.600 200.866 1101.602 200.860 C 1101.604 200.854 1101.608 200.849 1101.613 200.845 C 1101.618 200.842 1101.624 200.840 1101.630 200.840 H 1088.660 C 1088.630 200.840 1088.660 200.870 1088.660 200.840 V 198.270 C 1088.660 198.253 1088.647 198.240 1088.630 198.240 H 1086.030 C 1086.013 198.240 1086.000 198.253 1086.000 198.270 V 202.950 C 1086.000 202.967 1086.013 202.980 1086.030 202.980 Z" stroke="rgb(0,0,0)" stroke-width="0.06" />
</g>
<g id="p-16" style="fill:none;stroke-linecap:round;stroke-linejoin:round;">
  <path d="M 1108.190 202.980 H 1110.760 C 1110.790 202.980 1110.760 202.950 1110.760 202.980 V 203.470 C 1110.760 203.487 1110.773 203.500 1110.790 203.500 H 1115.960 C 1115.990 203.500 1115.960 203.470 1115.960 203.500 V 206.070 C 1115.960 206.087 1115.973 206.100 1115.990 206.100 H 1118.590 C 1118.607 206.100 1118.620 206.087 1118.620 206.070 V 203.500 C 1118.620 203.470 1118.590 203.500 1118.620 203.500 H 1126.390 C 1126.407 203.500 1126.420 203.487 1126.420 203.470 V 200.900 C 1126.420 200.870 1126.390 200.900 1126.420 200.900 H 1128.990 C 1129.007 200.900 1129.020 200.887 1129.020 200.870 V 198.270 C 1129.020 198.253 1129.007 198.240 1128.990 198.240 H 1123.790 C 1123.773 198.240 1123.760 198.253 1123.760 198.270 V 199.538 C 1123.760 199.570 1123.792 199.540 1123.760 199.538 L 1111.083 198.651 C 1111.066 198.650 1111.051 198.664 1111.051 198.681 V 199.981 C 1111.051 199.997 1111.063 200.010 1111.079 200.011 L 1123.788 200.900 C 1123.782 200.899 1123.776 200.897 1123.771 200.893 C 1123.766 200.889 1123.763 200.884 1123.761 200.878 C 1123.759 200.872 1123.760 200.866 1123.762 200.860 C 1123.764 200.854 1123.768 200.849 1123.773 200.845 C 1123.778 200.842 1123.784 200.840 1123.790 200.840 H 1110.820 C 1110.790 200.840 1110.820 200.870 1110.820 200.840 V 198.270 C 1110.820 198.253 1110.807 198.240 1110.790 198.240 H 1108.190 C 1108.173 198.240 1108.160 198.253 1108.160 198.270 V 202.950 C 1108.160 202.967 1108.173 202.980 1108.190 202.980 Z" stroke="rgb(0,0,0)" stroke-width="0.06" />
</g>
<g id="p-17" style="fill:none;stroke-linecap:round;stroke-linejoin:round;">
  <path d="M 1087.330 196.940 H 1089.800 C 1089.817 196.940 1089.830 196.927 1089.830 196.910 V 190.310 C 1089.830 190.280 1089.800 190.310 1089.830 190.310 H 1092.630 C 1092.660 190.310 1092.630 190.280 1092.630 190.310 V 196.910 C 1092.630 196.927 1092.643 196.940 1092.660 196.940 H 1095.130 C 1095.147 196.940 1095.160 196.927 1095.160 196.910 V 194.340 C 1095.160 194.310 1095.130 194.340 1095.160 194.340 H 1096.430 C 1096.447 194.340 1096.460 194.327 1096.460 194.310 V 189.110 C 1096.460 189.102 1096.457 189.094 1096.451 189.089 L 1093.851 186.489 C 1093.846 186.483 1093.838 186.480 1093.830 186.480 H 1088.630 C 1088.622 186.480 1088.614 186.483 1088.609 186.489 L 1086.009 189.089 C 1086.003 189.094 1086.000 189.102 1086.000 189.110 V 194.310 C 1086.000 194.327 1086.013 194.340 1086.030 194.340 H 1087.300 C 1087.330 194.340 1087.300 194.310 1087.300 194.340 V 196.910 C 1087.300 196.927 1087.313 196.940 1087.330 196.940 Z" stroke="rgb(0,0,0)" stroke-width="0.06" />
</g>
<g id="p-18" style="fill:none;stroke-linecap:round;stroke-linejoin:round;">
  <path d="M 1099.090 196.940 H 1101.560 C 1101.577 196.940 1101.590 196.927 1101.590 196.910 V 190.310 C 1101.590 190.280 1101.560 190.310 1101.590 190.310 H 1104.390 C 1104.420 190.310 1104.390 190.280 1104.390 190.310 V 196.910 C 1104.390 196.927 1104.403 196.940 1104.420 196.940 H 1106.890 C 1106.907 196.940 1106.920 196.927 1106.920 196.910 V 194.340 C 1106.920 194.310 1106.890 194.340 1106.920 194.340 H 1108.190 C 1108.207 194.340 1108.220 194.327 1108.220 194.310 V 189.110 C 1108.220 189.102 1108.217 189.094 1108.211 189.089 L 1105.611 186.489 C 1105.606 186.483 1105.598 186.480 1105.590 186.480 H 1100.390 C 1100.382 186.480 1100.374 186.483 1100.369 186.489 L 1097.769 189.089 C 1097.763 189.094 1097.760 189.102 1097.760 189.110 V 194.310 C 1097.760 194.327 1097.773 194.340 1097.790 194.340 H 1099.060 C 1099.090 194.340 1099.060 194.310 1099.060 194.340 V 196.910 C 1099.060 196.927 1099.073 196.940 1099.090 196.940 Z" stroke="rgb(0,0,0)" stroke-width="0.06" />
</g>
<g id="p-19" style="fill:none;stroke-linecap:round;stroke-linejoin:round;">
  <path d="M 1087.330 185.180 H 1089.800 C 1089.817 185.180 1089.830 185.167 1089.830 185.150 V 178.550 C 1089.830 178.520 1089.800 178.550 1089.830 178.550 H 1092.630 C 1092.660 178.550 1092.630 178.520 1092.630 178.550 V 185.150 C 1092.630 185.167 1092.643 185.180 1092.660 185.180 H 1095.130 C 1095.147 185.180 1095.160 185.167 1095.160 185.150 V 182.580 C 1095.160 182.550 1095.130 182.580 1095.160 182.580 H 1096.430 C 1096.447 182.580 1096.460 182.567 1096.460 182.550 V 177.350 C 1096.460 177.342 1096.457 177.334 1096.451 177.329 L 1093.851 174.729 C 1093.846 174.723 1093.838 174.720 1093.830 174.720 H 1088.630 C 1088.622 174.720 1088.614 174.723 1088.609 174.729 L 1086.009 177.329 C 1086.003 177.334 1086.000 177.342 1086.000 177.350 V 182.550 C 1086.000 182.567 1086.013 182.580 1086.030 182.580 H 1087.300 C 1087.330 182.580 1087.300 182.550 1087.300 182.580 V 185.150 C 1087.300 185.167 1087.313 185.180 1087.330 185.180 Z" stroke="rgb(0,0,0)" stroke-width="0.06" />
</g>
<g id="p-20" style="fill:none;stroke-linecap:round;stroke-linejoin:round;">
  <path d="M 1099.090 185.180 H 1101.560 C 1101.577 185.180 1101.590 185.167 1101.590 185.150 V 178.550 C 1101.590 178.520 1101.560 178.550 1101.590 178.550 H 1104.390 C 1104.420 178.550 1104.390 178.520 1104.390 178.550 V 185.150 C 1104.390 185.167 1104.403 185.180 1104.420 185.180 H 1106.890 C 1106.907 185.180 1106.920 185.167 1106.920 185.150 V 182.580 C 1106.920 182.550 1106.890 182.580 1106.920 182.580 H 1108.190 C 1108.207 182.580 1108.220 182.567 1108.220 182.550 V 177.350 C 1108.220 177.342 1108.217 177.334 1108.211 177.329 L 1105.611 174.729 C 1105.606 174.723 1105.598 174.720 1105.590 174.720 H 1100.390 C 1100.382 174.720 1100.374 174.723 1100.369 174.729 L 1097.769 177.329 C 1097.763 177.334 1097.760 177.342 1097.760 177.350 V 182.550 C 1097.760 182.567 1097.773 182.580 1097.790 182.580 H 1099.060 C 1099.090 182.580 1099.060 182.550 1099.060 182.580 V 185.150 C 1099.060 185.167 1099.073 185.180 1099.090 185.180 Z" stroke="rgb(0,0,0)" stroke-width="0.06" />
</g>
<g id="p-21" style="fill:none;stroke-linecap:round;stroke-linejoin:round;">
  <path d="M 1087.330 173.420 H 1089.800 C 1089.817 173.420 1089.830 173.407 1089.830 173.390 V 166.790 C 1089.830 166.760 1089.800 166.790 1089.830 166.790 H 1092.630 C 1092.660 166.790 1092.630 166.760 1092.630 166.790 V 173.390 C 1092.630 173.407 1092.643 173.420 1092.660 173.420 H 1095.130 C 1095.147 173.420 1095.160 173.407 1095.160 173.390 V 170.820 C 1095.160 170.790 1095.130 170.820 1095.160 170.820 H 1096.430 C 1096.447 170.820 1096.460 170.807 1096.460 170.790 V 165.590 C 1096.460 165.582 1096.457 165.574 1096.451 165.569 L 1093.851 162.969 C 1093.846 162.963 1093.838 162.960 1093.830 162.960 H 1088.630 C 1088.622 162.960 1088.614 162.963 1088.609 162.969 L 1086.009 165.569 C 1086.003 165.574 1086.000 165.582 1086.000 165.590 V 170.790 C 1086.000 170.807 1086.013 170.820 1086.030 170.820 H 1087.300 C 1087.330 170.820 1087.300 170.790 1087.300 170.820 V 173.390 C 1087.300 173.407 1087.313 173.420 1087.330 173.420 Z" stroke="rgb(0,0,0)" stroke-width="0.06" />
</g>
<g id="p-22" style="fill:none;stroke-linecap:round;stroke-linejoin:round;">
  <path d="M 1099.090 173.420 H 1101.560 C 1101.577 173.420 1101.590 173.407 1101.590 173.390 V 166.790 C 1101.590 166.760 1101.560 166.790 1101.590 166.790 H 1104.390 C 1104.420 166.790 1104.390 166.760 1104.390 166.790 V 173.390 C 1104.390 173.407 1104.403 173.420 1104.420 173.420 H 1106.890 C 1106.907 173.420 1106.920 173.407 1106.920 173.390 V 170.820 C 1106.920 170.790 1106.890 170.820 1106.920 170.820 H 1108.190 C 1108.207 170.820 1108.220 170.807 1108.220 170.790 V 165.590 C 1108.220 165.582 1108.217 165.574 1108.211 165.569 L 1105.611 162.969 C 1105.606 162.963 1105.598 162.960 1105.590 162.960 H 1100.390 C 1100.382 162.960 1100.374 162.963 1100.369 162.969 L 1097.769 165.569 C 1097.763 165.574 1097.760 165.582 1097.760 165.590 V 170.790 C 1097.760 170.807 1097.773 170.820 1097.790 170.820 H 1099.060 C 1099.090 170.820 1099.060 170.790 1099.060 170.820 V 173.390 C 1099.060 173.407 1099.073 173.420 1099.090 173.420 Z" stroke="rgb(0,0,0)" stroke-width="0.06" />
</g>
<g id="p-23" style="fill:none;stroke-linecap:round;stroke-linejoin:round;">
  <path d="M 1087.330 161.660 H 1089.800 C 1089.817 161.660 1089.830 161.647 1089.830 161.630 V 155.030 C 1089.830 155.000 1089.800 155.030 1089.830 155.030 H 1092.630 C 1092.660 155.030 1092.630 155.000 1092.630 155.030 V 161.630 C 1092.630 161.647 1092.643 161.660 1092.660 161.660 H 1095.130 C 1095.147 161.660 1095.160 161.647 1095.160 161.630 V 159.060 C 1095.160 159.030 1095.130 159.060 1095.160 159.060 H 1096.430 C 1096.447 159.060 1096.460 159.047 1096.460 159.030 V 153.830 C 1096.460 153.822 1096.457 153.814 1096.451 153.809 L 1093.851 151.209 C 1093.846 151.203 1093.838 151.200 1093.830 151.200 H 1088.630 C 1088.622 151.200 1088.614 151.203 1088.609 151.209 L 1086.009 153.809 C 1086.003 153.814 1086.000 153.822 1086.000 153.830 V 159.030 C 1086.000 159.047 1086.013 159.060 1086.030 159.060 H 1087.300 C 1087.330 159.060 1087.300 159.030 1087.300 159.060 V 161.630 C 1087.300 161.647 1087.313 161.660 1087.330 161.660 Z" stroke="rgb(0,0,0)" stroke-width="0.06" />
</g>
<g id="p-24" style="fill:none;stroke-linecap:round;stroke-linejoin:round;">
  <path d="M 1099.090 161.660 H 1101.560 C 1101.577 161.660 1101.590 161.647 1101.590 161.630 V 155.030 C 1101.590 155.000 1101.560 155.030 1101.590 155.030 H 1104.390 C 1104.420 155.030 1104.390 155.000 1104.390 155.030 V 161.630 C 1104.390 161.647 1104.403 161.660 1104.420 161.660 H 1106.890 C 1106.907 161.660 1106.920 161.647 1106.920 161.630 V 159.060 C 1106.920 159.030 1106.890 159.060 1106.920 159.060 H 1108.190 C 1108.207 159.060 1108.220 159.047 1108.220 159.030 V 153.830 C 1108.220 153.822 1108.217 153.814 1108.211 153.809 L 1105.611 151.209 C 1105.606 151.203 1105.598 151.200 1105.590 151.200 H 1100.390 C 1100.382 151.200 1100.374 151.203 1100.369 151.209 L 1097.769 153.809 C 1097.763 153.814 1097.760 153.822 1097.760 153.830 V 159.030 C 1097.760 159.047 1097.773 159.060 1097.790 159.060 H 1099.060 C 1099.090 159.060 1099.060 159.030 1099.060 159.060 V 161.630 C 1099.060 161.647 1099.073 161.660 1099.090 161.660 Z" stroke="rgb(0,0,0)" stroke-width="0.06" />
</g>
</svg>